<?xml version="1.0" encoding="UTF-8"?>
<!-- Created with Inkscape (http://www.inkscape.org/) -->
<svg width="180.62mm" height="115.12mm" version="1.1" viewBox="0 0 180.62 115.12" xmlns="http://www.w3.org/2000/svg">
 <g transform="translate(-13.513 -90.942)">
  <g fill="#3f3">
   <path d="m168.77 135.03c15.221 5.074 25.368 19.28 25.368 35.008 0 19.787-16.743 36.022-36.53 36.022h-107.56c-20.294 0-36.53-16.236-36.53-36.022 0-18.773 13.699-34.501 32.472-36.53 2.0298-12.683 10.148-22.831 21.817-27.398 11.162-4.5667 23.846-3.5511 33.486 3.0441 9.1324-16.743 27.905-21.817 44.648-15.729 17.25 6.5952 27.398 23.338 22.831 41.603zm-6.0882 7.6108c-2.537-0.50711-4.0584-3.5511-3.5511-6.0882 6.0882-15.221-1.0142-29.427-16.236-35.008-14.713-5.5809-29.427 0-35.518 15.221-1.0142 3.0441-4.5667 4.0584-7.1039 2.0298-8.1181-7.1039-19.28-9.1324-28.92-5.074-10.148 4.0584-16.743 13.192-17.25 23.846 0 2.537-2.0298 4.5667-4.5667 4.5667-15.221 0-27.398 12.176-27.398 27.905 0 15.221 12.683 27.905 27.905 27.905h107.56c15.221 0 27.905-12.683 27.905-27.905 0-13.699-9.6393-24.861-22.831-27.398z" stroke-width=".35278"/>
   <g stroke-width=".18401">
    <path d="m135.39 123.1h-63.123c-3.2482 0-6.3635 1.2902-8.6607 3.5868-2.2965 2.2972-3.5868 5.4125-3.5868 8.6607v47.107c0 3.2482 1.2902 6.3635 3.5868 8.6607 2.2972 2.2965 5.4125 3.5868 8.6607 3.5868h63.123c3.2482 0 6.3635-1.2902 8.6607-3.5868 2.2965-2.2972 3.5868-5.4125 3.5868-8.6607v-47.107c0-3.2482-1.2902-6.3635-3.5868-8.6607-2.2972-2.2965-5.4125-3.5868-8.6607-3.5868zm6.595 59.355c0 1.7488-0.69435 3.4265-1.9314 4.6636-1.2371 1.2364-2.9148 1.9314-4.6636 1.9314h-63.123c-1.7488 0-3.4265-0.69508-4.6636-1.9314-1.2371-1.2371-1.9314-2.9148-1.9314-4.6636v-32.975h76.313zm0-38.628h-76.313v-8.4789c0-1.7488 0.69435-3.4265 1.9314-4.6636 1.2371-1.2364 2.9148-1.9314 4.6636-1.9314h63.123c1.7488 0 3.4265 0.69508 4.6636 1.9314 1.2371 1.237 1.9314 2.9148 1.9314 4.6636z"/>
    <path d="m91.105 136.29c0 2.6014-2.109 4.7103-4.7103 4.7103-2.6021 0-4.7111-2.109-4.7111-4.7103 0-2.6021 2.109-4.7111 4.7111-4.7111 2.6014 0 4.7103 2.109 4.7103 4.7111"/>
    <path d="m103.35 136.29c0 2.6014-2.1097 4.7103-4.7111 4.7103-2.6014 0-4.7111-2.109-4.7111-4.7103 0-2.6021 2.1097-4.7111 4.7111-4.7111 2.6014 0 4.7111 2.109 4.7111 4.7111"/>
    <path d="m78.857 136.29c0 2.6014-2.109 4.7103-4.7111 4.7103-2.6014 0-4.7103-2.109-4.7103-4.7103 0-2.6021 2.109-4.7111 4.7103-4.7111 2.6021 0 4.7111 2.109 4.7111 4.7111"/>
   </g>
  </g>
  <path d="m103.26 176.04 7.0657 8.3854 5.7467-4.8051-7.0657-8.3854 9.7979-3.4854-29.959-14.98 9.233 32.127z" fill="#ffb000" stroke-width=".18401"/>
 </g>
</svg>
