<?xml version="1.0" encoding="UTF-8" standalone="no"?>
<!-- Created with Inkscape (http://www.inkscape.org/) -->

<svg
   width="180.62222mm"
   height="115.11562mm"
   viewBox="0 0 180.62222 115.11562"
   version="1.1"
   id="svg539"
   inkscape:export-filename="cloudsite-logo-1240x790.png"
   inkscape:export-xdpi="174.375"
   inkscape:export-ydpi="174.375"
   inkscape:version="1.2.2 (b0a84865, 2022-12-01)"
   sodipodi:docname="cloudsite-logo.svg"
   xmlns:inkscape="http://www.inkscape.org/namespaces/inkscape"
   xmlns:sodipodi="http://sodipodi.sourceforge.net/DTD/sodipodi-0.dtd"
   xmlns="http://www.w3.org/2000/svg"
   xmlns:svg="http://www.w3.org/2000/svg">
  <sodipodi:namedview
     id="namedview541"
     pagecolor="#ffffff"
     bordercolor="#666666"
     borderopacity="1.0"
     inkscape:showpageshadow="2"
     inkscape:pageopacity="0.0"
     inkscape:pagecheckerboard="0"
     inkscape:deskcolor="#d1d1d1"
     inkscape:document-units="mm"
     showgrid="false"
     inkscape:zoom="0.2102413"
     inkscape:cx="133.1803"
     inkscape:cy="249.71307"
     inkscape:window-width="1200"
     inkscape:window-height="839"
     inkscape:window-x="0"
     inkscape:window-y="38"
     inkscape:window-maximized="0"
     inkscape:current-layer="layer1" />
  <defs
     id="defs536" />
  <g
     inkscape:label="Layer 1"
     inkscape:groupmode="layer"
     id="layer1"
     transform="translate(-13.513043,-90.942194)">
    <path
       d="m 168.76701,135.02814 c 15.2206,5.074 25.36825,19.28001 25.36825,35.00755 0,19.78728 -16.74319,36.02212 -36.53014,36.02212 H 50.043181 c -20.294248,0 -36.530138,-16.23589 -36.530138,-36.02212 0,-18.77307 13.699064,-34.50061 32.472135,-36.53014 2.029848,-12.68342 10.148005,-22.83143 21.817188,-27.39814 11.162242,-4.56671 23.845661,-3.55106 33.486364,3.04408 9.13236,-16.743182 27.90543,-21.817184 44.64756,-15.728945 17.25013,6.595185 27.39813,23.338375 22.83143,41.603085 z m -6.08824,7.61082 c -2.53697,-0.50711 -4.05836,-3.55106 -3.55106,-6.08823 6.08824,-15.2206 -1.01424,-29.42661 -16.23589,-35.00756 -14.71331,-5.580943 -29.42661,0 -35.51767,15.2206 -1.01423,3.04409 -4.56671,4.05836 -7.10388,2.02985 -8.118124,-7.10389 -19.280013,-9.13236 -28.919666,-5.07401 -10.148005,4.05836 -16.743185,13.19213 -17.250127,23.84567 0,2.53697 -2.029848,4.56671 -4.566708,4.56671 -15.220598,0 -27.398134,12.17647 -27.398134,27.90542 0,15.22058 12.68342,27.90541 27.905428,27.90541 H 157.603 c 15.2206,0 27.90543,-12.68342 27.90543,-27.90541 0,-13.69906 -9.6393,-24.8613 -22.83142,-27.39813 z"
       id="path373"
       style="fill:#1b3382;fill-opacity:1;stroke-width:0.352778" />
    <path
       d="M 135.3859,123.09552 H 72.262402 c -3.24818,0 -6.363504,1.29024 -8.660712,3.58676 -2.296471,2.29721 -3.586763,5.41253 -3.586763,8.66071 v 47.1071 c 0,3.24817 1.290236,6.36348 3.586763,8.6607 2.297208,2.29648 5.412532,3.58676 8.660712,3.58676 H 135.3859 c 3.24818,0 6.36351,-1.29021 8.66071,-3.58676 2.29647,-2.29722 3.58677,-5.41253 3.58677,-8.6607 v -47.1071 c 0,-3.24818 -1.29024,-6.3635 -3.58677,-8.66071 -2.2972,-2.29647 -5.41253,-3.58676 -8.66071,-3.58676 z m 6.59499,59.35493 c 0,1.74882 -0.69435,3.42649 -1.93139,4.66361 -1.23706,1.23635 -2.91475,1.93139 -4.6636,1.93139 H 72.262402 c -1.748832,0 -3.426488,-0.69508 -4.663602,-1.93139 -1.237058,-1.23708 -1.931392,-2.91475 -1.931392,-4.66361 v -32.97496 h 76.313482 z m 0,-38.62781 H 65.667408 v -8.47891 c 0,-1.74883 0.694352,-3.42649 1.931392,-4.6636 1.237057,-1.23635 2.914752,-1.9314 4.663602,-1.9314 H 135.3859 c 1.74883,0 3.42649,0.69508 4.6636,1.9314 1.23706,1.23705 1.93139,2.91475 1.93139,4.6636 z"
       id="path608"
       style="fill:#1b3382;fill-opacity:1;stroke-width:0.184012" />
    <path
       d="m 91.10524,136.28532 c 0,2.60138 -2.108966,4.71034 -4.710342,4.71034 -2.602117,0 -4.711079,-2.10896 -4.711079,-4.71034 0,-2.60212 2.108962,-4.71108 4.711079,-4.71108 2.601376,0 4.710342,2.10896 4.710342,4.71108"
       id="path610"
       style="fill:#1b3382;fill-opacity:1;stroke-width:0.184012" />
    <path
       d="m 103.35308,136.28532 c 0,2.60138 -2.1097,4.71034 -4.711077,4.71034 -2.601378,0 -4.711078,-2.10896 -4.711078,-4.71034 0,-2.60212 2.1097,-4.71108 4.711078,-4.71108 2.601377,0 4.711077,2.10896 4.711077,4.71108"
       id="path612"
       style="fill:#1b3382;fill-opacity:1;stroke-width:0.184012" />
    <path
       d="m 78.857394,136.28532 c 0,2.60138 -2.108962,4.71034 -4.711079,4.71034 -2.601376,0 -4.710337,-2.10896 -4.710337,-4.71034 0,-2.60212 2.108962,-4.71108 4.710338,-4.71108 2.602117,0 4.711079,2.10896 4.711079,4.71108"
       id="path614"
       style="fill:#1b3382;fill-opacity:1;stroke-width:0.184012" />
    <path
       d="m 103.25923,176.04297 7.0657,8.38543 5.7467,-4.80511 -7.0657,-8.38543 9.79791,-3.48537 -29.959006,-14.98043 9.232989,32.12666 z"
       id="path616"
       style="fill:#d96201;fill-opacity:1;stroke-width:0.184012" />
  </g>
</svg>
