<?xml version="1.0" encoding="UTF-8" standalone="no"?>
<svg
   version="1.1"
   id="svg664"
   sodipodi:docname="github-mark-hover.svg"
   width="29.999458"
   height="29.499727"
   inkscape:version="1.2.2 (b0a84865, 2022-12-01)"
   xmlns:inkscape="http://www.inkscape.org/namespaces/inkscape"
   xmlns:sodipodi="http://sodipodi.sourceforge.net/DTD/sodipodi-0.dtd"
   xmlns="http://www.w3.org/2000/svg"
   xmlns:svg="http://www.w3.org/2000/svg">
  <defs
     id="defs668" />
  <sodipodi:namedview
     id="namedview666"
     pagecolor="#ffffff"
     bordercolor="#666666"
     borderopacity="1.0"
     inkscape:showpageshadow="2"
     inkscape:pageopacity="0.0"
     inkscape:pagecheckerboard="0"
     inkscape:deskcolor="#d1d1d1"
     showgrid="false"
     inkscape:zoom="1.1633333"
     inkscape:cx="101.43266"
     inkscape:cy="74.7851"
     inkscape:window-width="709"
     inkscape:window-height="480"
     inkscape:window-x="0"
     inkscape:window-y="38"
     inkscape:window-maximized="0"
     inkscape:current-layer="svg664" />
  <path
     d="M 15.013,0 C 6.7113,0 0,6.7604 0,15.124 c 0,6.6854 4.2999,12.344 10.265,14.347 0.74579,0.15057 1.0189,-0.32542 1.0189,-0.72582 0,-0.35061 -0.02459,-1.5524 -0.02459,-2.8046 -4.176,0.90157 -5.0457,-1.8028 -5.0457,-1.8028 -0.67112,-1.7528 -1.6655,-2.2033 -1.6655,-2.2033 -1.3668,-0.92647 0.099562,-0.92647 0.099562,-0.92647 1.5162,0.10018 2.3117,1.5524 2.3117,1.5524 1.342,2.3035 3.5043,1.6526 4.3743,1.2519 0.12415,-0.97657 0.52209,-1.6526 0.94462,-2.0281 -3.3307,-0.35062 -6.835,-1.6526 -6.835,-7.4619 0,-1.6526 0.59614,-3.0047 1.5407,-4.0562 -0.14904,-0.37551 -0.67112,-1.9282 0.14934,-4.0065 0,0 1.2676,-0.40071 4.1256,1.5524 a 14.434,14.434 0 0 1 3.7532,-0.50088 c 1.2676,0 2.5597,0.17546 3.7529,0.50088 2.8584,-1.9531 4.1259,-1.5524 4.1259,-1.5524 0.82049,2.0782 0.29807,3.6309 0.14904,4.0065 0.96952,1.0516 1.5411,2.4036 1.5411,4.0562 0,5.8093 -3.5043,7.0861 -6.8599,7.4619 0.54697,0.47568 1.0189,1.377 1.0189,2.8043 0,2.0281 -0.02458,3.6558 -0.02458,4.1564 0,0.40071 0.27348,0.87667 1.0189,0.72643 5.9651,-2.0035 10.265,-7.6619 10.265,-14.347 0.02458,-8.3632 -6.7109,-15.124 -14.987,-15.124 z"
     clip-rule="evenodd"
     fill="#d96201"
     fill-rule="evenodd"
     stroke-width="0.30729"
     id="path662" />
</svg>
