<?xml version="1.0" encoding="UTF-8"?>
<svg width="512pt" height="512pt" version="1.1" viewBox="0 0 512 512" xmlns="http://www.w3.org/2000/svg">
 <g>
  <path d="m192.05 262.9 30.094-29.465c-15.227-5.6992-26.332-20.422-26.332-37.617 0-22.129 17.996-40.125 40.125-40.125h63.949l36.363-36.363v-3.7617l-60.191-0.003906v-40.125h-40.125v40.125c-44.258 0-80.246 35.992-80.246 80.246 0 28.152 14.398 52.762 36.363 67.09z" fill="#ffb000"/>
  <path d="m319.95 249.1-30.094 29.465c15.227 5.6992 26.332 20.422 26.332 37.617 0 22.129-17.996 40.125-40.125 40.125h-63.949l-36.363 36.363v3.7617h60.188v40.125h40.125v-40.125c44.258 0 80.246-35.992 80.246-80.246 0.003906-28.148-14.395-52.758-36.359-67.086z" fill="#ffb000"/>
  <path d="m256 10.238c-135.73 0-245.76 110.03-245.76 245.76s110.03 245.76 245.76 245.76 245.76-110.03 245.76-245.76-110.03-245.76-245.76-245.76zm0 446.38c-48.266 0-92.707-16.887-127.27-45.137l282.75-282.75c28.258 34.559 45.137 79 45.137 127.27 0 111.04-89.582 200.62-200.62 200.62zm0-401.24c48.266 0 92.707 16.887 127.27 45.137l-282.75 282.75c-28.258-34.559-45.137-79.008-45.137-127.27-0.003906-111.04 89.578-200.62 200.62-200.62z" fill="#3f3"/>
 </g>
</svg>
