<?xml version="1.0" encoding="UTF-8"?>
<svg width="512pt" height="512pt" version="1.1" viewBox="0 0 512 512" xmlns="http://www.w3.org/2000/svg">
 <g>
  <path d="m473.92 188.88c-0.45312 3.8789-3.9609 6.6523-7.8398 6.1992-3.8789-0.45313-6.6523-3.9609-6.1992-7.8398s3.9609-6.6523 7.8398-6.1992c3.8789 0.45703 6.6523 3.9648 6.1992 7.8398z" fill="#1b3382"/>
  <path d="m498.31 191.36-29.59-114.36c-2.5156-9.7266-12.477-15.594-22.203-13.07l-22.012 5.6953c-4.6992 1.2148-8.6523 4.1992-11.125 8.3984-2.4766 4.2031-3.168 9.1055-1.9453 13.801l3.2461 12.559-11.199 3.0039-80.426-46.434c-13.883-8.0156-29.188-9.8828-44.262-5.3828l-144.03 43.004c-13.91 4.1562-22.676 21.609-18.395 36.625 2.0703 7.2578 12.406 29.98 58.469 17.445l78.758-21.426c2.5508-0.69141 5.0547-1.125 7.5508-1.2969-0.99219 1.2266-1.9141 2.5703-2.7539 4.0195-7.3867 12.793-3.0703 29.359 9.8203 37.719 0.29687 0.19141 0.60156 0.36328 0.92187 0.51172 18.512 8.7188 35.902 20.844 49.879 30.582 4.8867 3.4023 9.4922 6.6172 13.473 9.1992 8.4648 5.4883 17.348 7.4062 26.09 7.4062 8.2578 0 16.383-1.7109 23.91-3.7383l57.004-15.367 1.5312 5.9141c2.1211 8.2031 9.5352 13.66 17.645 13.66 1.5039 0 3.0352-0.1875 4.5586-0.58203l22.016-5.6953c9.7227-2.5117 15.59-12.469 13.07-22.195zm-119.9 9.1445c-12.77 3.4414-26.133 5.6211-37.391-1.6836-3.7617-2.4375-8.0586-5.4336-13.039-8.9062-14.324-9.9883-32.129-22.395-51.633-31.652-5.6836-3.9375-7.5742-10.938-4.3789-16.477 3.1875-5.5234 8.2148-7.1875 14.945-4.9492 10.484 5.125 37.883 21.477 42.457 24.121 3.75 2.1602 8.5391 0.87891 10.703-2.8711 2.1641-3.75 0.87891-8.5391-2.8711-10.703-4.4805-2.5859-48.469-27.039-50.676-28.027-12.477-5.5781-24.594-6.6406-37.039-3.2539l-78.758 21.426c-21.406 5.8242-36.457 3.2852-39.285-6.625-1.9141-6.7109 2.1016-15.605 7.8086-17.312l144.03-43.004c10.992-3.2812 21.738-1.957 31.941 3.9375l83.238 48.059c1.8008 1.0391 3.9414 1.3164 5.9453 0.78516l14.203-3.8086 16.961 65.535zm102.91-2.1133-22.016 5.6953c-0.875 0.23047-1.5859-0.0781-1.9258-0.28125-0.3399-0.20313-0.95312-0.67188-1.1797-1.5469l-29.59-114.35c-0.22266-0.875 0.0781-1.5859 0.28125-1.9258 0.20313-0.33984 0.67188-0.95312 1.5469-1.1797l22.012-5.6953c1.3398-0.34766 2.7617 0.49219 3.1094 1.8281l29.59 114.35c0.34766 1.3359-0.48828 2.7617-1.8281 3.1055z" fill="#3f3"/>
  <path d="m52.12 324.75c-0.45312 3.8789-3.9609 6.6523-7.8398 6.1992s-6.6523-3.9609-6.1992-7.8398c0.45312-3.8789 3.9609-6.6523 7.8398-6.1992s6.6523 3.9609 6.1992 7.8398z" fill="#1b3382"/>
  <path d="m337.16 359.34-78.758 21.426c-2.5508 0.69141-5.0547 1.125-7.5508 1.2969 0.99219-1.2266 1.9141-2.5703 2.7539-4.0195 7.3867-12.789 3.0703-29.359-9.8203-37.719-0.29687-0.19141-0.60156-0.36328-0.92187-0.51172-18.512-8.7188-35.902-20.844-49.883-30.582-4.8789-3.4023-9.4922-6.6172-13.473-9.1992-16.453-10.676-34.508-7.8438-50-3.668l-57.004 15.367-1.5312-5.9141c-2.5156-9.7266-12.477-15.59-22.203-13.07l-22.016 5.6953c-9.7227 2.5156-15.59 12.477-13.07 22.203l29.594 114.34c1.2148 4.6992 4.1992 8.6523 8.3984 11.125 2.8477 1.6758 6.0156 2.5352 9.2266 2.5352 1.5234 0 3.0625-0.19141 4.5742-0.58594l22.016-5.6953c4.6992-1.2148 8.6523-4.1992 11.125-8.3984 2.4766-4.2031 3.168-9.1055 1.9453-13.801l-3.2539-12.559 11.199-3.0039 80.426 46.434c8.9492 5.168 18.484 7.7773 28.164 7.7773 5.3438 0 10.73-0.79297 16.09-2.3945l144.03-43.004c13.91-4.1562 22.676-21.609 18.395-36.625-2.0547-7.2617-12.391-29.977-58.453-17.449zm-252.04 66.672c-0.20312 0.33984-0.67188 0.95312-1.5469 1.1797l-22.016 5.6953c-0.875 0.22266-1.5859-0.0781-1.9258-0.28125-0.33984-0.20312-0.95312-0.67188-1.1797-1.5469l-29.594-114.35c-0.34766-1.3398 0.49219-2.7617 1.8281-3.1094l22.012-5.6953c0.21875-0.0586 0.42578-0.0781 0.625-0.0781 0.58203 0 1.0469 0.20703 1.3086 0.36328 0.33984 0.20312 0.95313 0.67188 1.1797 1.5469l29.59 114.35c0.22266 0.87109-0.07813 1.5781-0.28125 1.9258zm287.63-27.617-144.03 43.004c-10.992 3.2812-21.734 1.957-31.941-3.9375l-83.234-48.059c-1.7969-1.0391-3.9375-1.3164-5.9453-0.78516l-14.207 3.8086-16.961-65.535 57.156-15.406c12.77-3.4414 26.133-5.6211 37.391 1.6836 3.7617 2.4375 8.0586 5.4336 13.039 8.9062 14.332 9.9883 32.129 22.395 51.633 31.652 5.6836 3.9375 7.5781 10.938 4.3828 16.477-3.1875 5.5234-8.2148 7.1875-14.945 4.9492-10.484-5.125-37.883-21.477-42.457-24.121-3.75-2.1641-8.5391-0.87891-10.703 2.8711-2.1641 3.75-0.87891 8.5391 2.8711 10.703 4.4805 2.5859 48.465 27.039 50.676 28.027 12.477 5.5781 24.594 6.6406 37.039 3.2539l78.758-21.426c21.406-5.8242 36.457-3.2852 39.285 6.625 1.918 6.707-2.0938 15.602-7.8047 17.309z" fill="#3f3"/>
  <path d="m195.64 250.01c12.32 0 22.34-10.02 22.34-22.34s-10.02-22.34-22.34-22.34-22.34 10.02-22.34 22.34c-4e-3 12.312 10.02 22.34 22.34 22.34zm0-29.02c3.6797 0 6.6719 2.9922 6.6719 6.6719s-2.9922 6.6719-6.6719 6.6719-6.6719-2.9922-6.6719-6.6719c-4e-3 -3.6797 2.9883-6.6719 6.6719-6.6719zm-18.094 61.621c16.676 9.625 36.93 10.086 53.922 1.4766l35.285 20.375c1.9141 1.1055 4.2148 1.3477 6.3164 0.67188l9.6797-3.1133 2.1445 9.9414c0.46484 2.1602 1.8242 4.0273 3.7422 5.1367 1.9141 1.1055 4.207 1.3477 6.3164 0.67188l9.6797-3.1133 2.1445 9.9414c0.46484 2.1641 1.8242 4.0273 3.7422 5.1367l7.4414 4.293c1.1992 0.69141 2.5547 1.0508 3.9219 1.0508 0.58594 0 1.1719-0.0625 1.7539-0.19922l33.055-7.6016c2.1172-0.48438 3.9414-1.8359 5.0312-3.7188 1.0898-1.8828 1.3438-4.1328 0.70313-6.2148l-9.9492-32.441c-0.58203-1.8945-1.8555-3.5-3.5742-4.4922l-86.484-49.938c-1.0391-19.02-11.562-36.332-28.234-45.957-27.039-15.609-61.742-6.3164-77.359 20.727-15.617 27.047-6.3164 61.75 20.723 77.367zm-7.1562-69.523c11.289-19.559 36.391-26.281 55.953-14.992 13.066 7.5469 20.91 21.617 20.469 36.715-0.0859 2.8789 1.418 5.5742 3.9141 7.0117l87.668 50.617 6.5742 21.434-21.852 5.0234-1.7617-1.0195-3.2305-14.996c-0.46484-2.1641-1.8242-4.0273-3.7422-5.1367-1.9141-1.1055-4.207-1.3477-6.3164-0.67188l-9.6797 3.1133-2.1445-9.9414c-0.46484-2.1602-1.8242-4.0273-3.7422-5.1367-1.9141-1.1055-4.207-1.3477-6.3164-0.67188l-14.609 4.6992-36.129-20.859c-2.4961-1.4414-5.5781-1.3984-8.0312 0.11719-12.859 7.9375-28.965 8.1758-42.031 0.63281-19.559-11.277-26.281-36.383-14.992-55.938z" fill="#ffb000"/>
 </g>
</svg>
