<?xml version="1.0" encoding="UTF-8" standalone="no"?>
<svg
   width="512pt"
   height="512pt"
   version="1.1"
   viewBox="0 0 512 512"
   id="svg26471"
   sodipodi:docname="ownership-icon-bi.svg"
   inkscape:version="1.2.2 (b0a84865, 2022-12-01)"
   xmlns:inkscape="http://www.inkscape.org/namespaces/inkscape"
   xmlns:sodipodi="http://sodipodi.sourceforge.net/DTD/sodipodi-0.dtd"
   xmlns="http://www.w3.org/2000/svg"
   xmlns:svg="http://www.w3.org/2000/svg">
  <defs
     id="defs26475" />
  <sodipodi:namedview
     id="namedview26473"
     pagecolor="#ffffff"
     bordercolor="#666666"
     borderopacity="1.0"
     inkscape:showpageshadow="2"
     inkscape:pageopacity="0.0"
     inkscape:pagecheckerboard="0"
     inkscape:deskcolor="#d1d1d1"
     inkscape:document-units="pt"
     showgrid="false"
     inkscape:zoom="1.0151367"
     inkscape:cx="340.84079"
     inkscape:cy="341.33333"
     inkscape:window-width="1401"
     inkscape:window-height="887"
     inkscape:window-x="0"
     inkscape:window-y="38"
     inkscape:window-maximized="0"
     inkscape:current-layer="svg26471" />
  <path
     style="fill:#1b3382;fill-opacity:1"
     d="m 473.9175,188.8815 c -0.45312,3.8789 -3.9609,6.6523 -7.8398,6.1992 -3.8789,-0.45313 -6.6523,-3.9609 -6.1992,-7.8398 0.4531,-3.8789 3.9609,-6.6523 7.8398,-6.1992 3.8789,0.45703 6.6523,3.9648 6.1992,7.8398 z"
     id="path31684" />
  <path
     style="fill:#1b3382;fill-opacity:1"
     d="m 498.3098,191.362 -29.59,-114.36 c -2.5156,-9.7266 -12.477,-15.594 -22.203,-13.07 l -22.012,5.6953 c -4.6992,1.2148 -8.6523,4.1992 -11.125,8.3984 -2.4766,4.2031 -3.168,9.1055 -1.9453,13.801 l 3.2461,12.559 -11.199,3.0039 -80.426,-46.434 c -13.883,-8.0156 -29.188,-9.8828 -44.262,-5.3828 l -144.03,43.004 c -13.91,4.1562 -22.676,21.609 -18.395,36.625 2.0703,7.2578 12.406,29.98 58.469,17.445 l 78.758,-21.426 c 2.5508,-0.69141 5.0547,-1.125 7.5508,-1.2969 -0.99219,1.2266 -1.9141,2.5703 -2.7539,4.0195 -7.3867,12.793 -3.0703,29.359 9.8203,37.719 0.29687,0.19141 0.60156,0.36328 0.92187,0.51172 18.512,8.7188 35.902,20.844 49.879,30.582 4.8867,3.4023 9.4922,6.6172 13.473,9.1992 8.4648,5.4883 17.348,7.4062 26.09,7.4062 8.2578,0 16.383,-1.7109 23.91,-3.7383 l 57.004,-15.367 1.5312,5.9141 c 2.1211,8.2031 9.5352,13.66 17.645,13.66 1.5039,0 3.0352,-0.1875 4.5586,-0.58203 l 22.016,-5.6953 c 9.7227,-2.5117 15.59,-12.469 13.07,-22.195 z m -119.9,9.1445 c -12.77,3.4414 -26.133,5.6211 -37.391,-1.6836 -3.7617,-2.4375 -8.0586,-5.4336 -13.039,-8.9062 -14.324,-9.9883 -32.129,-22.395 -51.633,-31.652 -5.6836,-3.9375 -7.5742,-10.938 -4.3789,-16.477 3.1875,-5.5234 8.2148,-7.1875 14.945,-4.9492 10.484,5.125 37.883,21.477 42.457,24.121 3.75,2.1602 8.5391,0.87891 10.703,-2.8711 2.1641,-3.75 0.87891,-8.5391 -2.8711,-10.703 -4.4805,-2.5859 -48.469,-27.039 -50.676,-28.027 -12.477,-5.5781 -24.594,-6.6406 -37.039,-3.2539 l -78.758,21.426 c -21.406,5.8242 -36.457,3.2852 -39.285,-6.625 -1.9141,-6.7109 2.1016,-15.605 7.8086,-17.312 l 144.03,-43.004 c 10.992,-3.2812 21.738,-1.957 31.941,3.9375 l 83.238,48.059 c 1.8008,1.0391 3.9414,1.3164 5.9453,0.78516 l 14.203,-3.8086 16.961,65.535 z m 102.91,-2.1133 -22.016,5.6953 c -0.875,0.23047 -1.5859,-0.0781 -1.9258,-0.28125 -0.3399,-0.20313 -0.95312,-0.67188 -1.1797,-1.5469 l -29.59,-114.35 c -0.22266,-0.875 0.0781,-1.5859 0.28125,-1.9258 0.20313,-0.33984 0.67188,-0.95312 1.5469,-1.1797 l 22.012,-5.6953 c 1.3398,-0.34766 2.7617,0.49219 3.1094,1.8281 l 29.59,114.35 c 0.34766,1.3359 -0.48828,2.7617 -1.8281,3.1055 z"
     id="path31682" />
  <path
     style="fill:#1b3382;fill-opacity:1"
     d="m 52.1198,324.752 c -0.45312,3.8789 -3.9609,6.6523 -7.8398,6.1992 -3.8789,-0.4531 -6.6523,-3.9609 -6.1992,-7.8398 0.45312,-3.8789 3.9609,-6.6523 7.8398,-6.1992 3.8789,0.4531 6.6523,3.9609 6.1992,7.8398 z"
     id="path31680" />
  <path
     style="fill:#1b3382;fill-opacity:1"
     d="m 337.1598,359.338 -78.758,21.426 c -2.5508,0.69141 -5.0547,1.125 -7.5508,1.2969 0.99219,-1.2266 1.9141,-2.5703 2.7539,-4.0195 7.3867,-12.789 3.0703,-29.359 -9.8203,-37.719 -0.29687,-0.19141 -0.60156,-0.36328 -0.92187,-0.51172 -18.512,-8.7188 -35.902,-20.844 -49.883,-30.582 -4.8789,-3.4023 -9.4922,-6.6172 -13.473,-9.1992 -16.453,-10.676 -34.508,-7.8438 -50,-3.668 l -57.004,15.367 -1.5312,-5.9141 c -2.5156,-9.7266 -12.477,-15.59 -22.203,-13.07 l -22.016,5.6953 c -9.7227,2.5156 -15.59,12.477 -13.07,22.203 l 29.594,114.34 c 1.2148,4.6992 4.1992,8.6523 8.3984,11.125 2.8477,1.6758 6.0156,2.5352 9.2266,2.5352 1.5234,0 3.0625,-0.19141 4.5742,-0.58594 l 22.016,-5.6953 c 4.6992,-1.2148 8.6523,-4.1992 11.125,-8.3984 2.4766,-4.2031 3.168,-9.1055 1.9453,-13.801 l -3.2539,-12.559 11.199,-3.0039 80.426,46.434 c 8.9492,5.168 18.484,7.7773 28.164,7.7773 5.3438,0 10.73,-0.79297 16.09,-2.3945 l 144.03,-43.004 c 13.91,-4.1562 22.676,-21.609 18.395,-36.625 -2.0547,-7.2617 -12.391,-29.977 -58.453,-17.449 z m -252.04,66.672 c -0.20312,0.33984 -0.67188,0.95312 -1.5469,1.1797 l -22.016,5.6953 c -0.875,0.22266 -1.5859,-0.0781 -1.9258,-0.28125 -0.33984,-0.20312 -0.95312,-0.67188 -1.1797,-1.5469 l -29.594,-114.35 c -0.34766,-1.3398 0.49219,-2.7617 1.8281,-3.1094 l 22.012,-5.6953 c 0.21875,-0.0586 0.42578,-0.0781 0.625,-0.0781 0.58203,0 1.0469,0.20703 1.3086,0.36328 0.33984,0.20312 0.95313,0.67188 1.1797,1.5469 l 29.59,114.34999 c 0.22266,0.87109 -0.07813,1.5781 -0.28125,1.9258 z m 287.63,-27.617 -144.03,43.004 c -10.992,3.2812 -21.734,1.957 -31.941,-3.9375 l -83.234,-48.059 c -1.7969,-1.0391 -3.9375,-1.3164 -5.9453,-0.78516 l -14.207,3.8086 -16.961,-65.535 57.156,-15.406 c 12.77,-3.4414 26.133,-5.6211 37.391,1.6836 3.7617,2.4375 8.0586,5.4336 13.039,8.9062 14.332,9.9883 32.129,22.395 51.633,31.652 5.6836,3.9375 7.5781,10.938 4.3828,16.477 -3.1875,5.5234 -8.2148,7.1875 -14.945,4.9492 -10.484,-5.125 -37.883,-21.477 -42.457,-24.121 -3.75,-2.1641 -8.5391,-0.87891 -10.703,2.8711 -2.1641,3.75 -0.87891,8.5391 2.8711,10.703 4.4805,2.5859 48.465,27.039 50.676,28.027 12.477,5.5781 24.594,6.6406 37.039,3.2539 l 78.758,-21.426 c 21.406,-5.8242 36.457,-3.2852 39.285,6.625 1.918,6.707 -2.0938,15.602 -7.8047,17.309 z"
     id="path31678" />
  <path
     style="fill:#d96201;fill-opacity:1"
     d="m 195.64,250.01 c 12.32,0 22.34,-10.02 22.34,-22.34 0,-12.32 -10.02,-22.34 -22.34,-22.34 -12.32,0 -22.34,10.02 -22.34,22.34 -0.004,12.312 10.02,22.34 22.34,22.34 z m 0,-29.02 c 3.6797,0 6.6719,2.9922 6.6719,6.6719 0,3.6797 -2.9922,6.6719 -6.6719,6.6719 -3.6797,0 -6.6719,-2.9922 -6.6719,-6.6719 -0.004,-3.6797 2.9883,-6.6719 6.6719,-6.6719 z m -18.094,61.621 c 16.676,9.625 36.93,10.086 53.922,1.4766 l 35.285,20.375 c 1.9141,1.1055 4.2148,1.3477 6.3164,0.67188 l 9.6797,-3.1133 2.1445,9.9414 c 0.46484,2.1602 1.8242,4.0273 3.7422,5.1367 1.9141,1.1055 4.207,1.3477 6.3164,0.67188 l 9.6797,-3.1133 2.1445,9.9414 c 0.46484,2.1641 1.8242,4.0273 3.7422,5.1367 l 7.4414,4.293 c 1.1992,0.69141 2.5547,1.0508 3.9219,1.0508 0.58594,0 1.1719,-0.0625 1.7539,-0.19922 l 33.055,-7.6016 c 2.1172,-0.48438 3.9414,-1.8359 5.0312,-3.7188 1.0898,-1.8828 1.3438,-4.1328 0.70313,-6.2148 l -9.9492,-32.441 c -0.58203,-1.8945 -1.8555,-3.5 -3.5742,-4.4922 l -86.484,-49.938 c -1.0391,-19.02 -11.562,-36.332 -28.234,-45.957 -27.039,-15.609 -61.742,-6.3164 -77.359,20.727 -15.617,27.047 -6.3164,61.75 20.723,77.367 z m -7.1562,-69.523 c 11.289,-19.559 36.391,-26.281 55.953,-14.992 13.066,7.5469 20.91,21.617 20.469,36.715 -0.0859,2.8789 1.418,5.5742 3.9141,7.0117 l 87.668,50.617 6.5742,21.434 -21.852,5.0234 -1.7617,-1.0195 -3.2305,-14.996 c -0.46484,-2.1641 -1.8242,-4.0273 -3.7422,-5.1367 -1.9141,-1.1055 -4.207,-1.3477 -6.3164,-0.67188 l -9.6797,3.1133 -2.1445,-9.9414 c -0.46484,-2.1602 -1.8242,-4.0273 -3.7422,-5.1367 -1.9141,-1.1055 -4.207,-1.3477 -6.3164,-0.67188 l -14.609,4.6992 -36.129,-20.859 c -2.4961,-1.4414 -5.5781,-1.3984 -8.0312,0.11719 -12.859,7.9375 -28.965,8.1758 -42.031,0.63281 -19.559,-11.277 -26.281,-36.383 -14.992,-55.938 z"
     id="path26469" />
</svg>
