<?xml version="1.0" encoding="UTF-8" standalone="no"?>
<svg
   width="512pt"
   height="512pt"
   version="1.1"
   viewBox="0 0 512 512"
   id="svg17599"
   sodipodi:docname="secure-hosting-icon-bi-color.svg"
   inkscape:version="1.2.2 (b0a84865, 2022-12-01)"
   xmlns:inkscape="http://www.inkscape.org/namespaces/inkscape"
   xmlns:sodipodi="http://sodipodi.sourceforge.net/DTD/sodipodi-0.dtd"
   xmlns="http://www.w3.org/2000/svg"
   xmlns:svg="http://www.w3.org/2000/svg">
  <defs
     id="defs17603" />
  <sodipodi:namedview
     id="namedview17601"
     pagecolor="#ffffff"
     bordercolor="#666666"
     borderopacity="1.0"
     inkscape:showpageshadow="2"
     inkscape:pageopacity="0.0"
     inkscape:pagecheckerboard="0"
     inkscape:deskcolor="#d1d1d1"
     inkscape:document-units="pt"
     showgrid="false"
     inkscape:zoom="0.34570313"
     inkscape:cx="363.02825"
     inkscape:cy="376.0452"
     inkscape:window-width="1284"
     inkscape:window-height="908"
     inkscape:window-x="0"
     inkscape:window-y="38"
     inkscape:window-maximized="0"
     inkscape:current-layer="svg17599" />
  <path
     style="stroke:#d96201;stroke-opacity:1;stroke-width:3;stroke-dasharray:none;fill:#d96201;fill-opacity:1"
     d="m 280.941,228.5 v -3.1211 c 0,-13.719 -11.16,-24.941 -24.941,-24.941 -13.719,0 -24.941,11.16 -24.941,24.941 V 228.5 c -9.5195,1.6797 -16.801,9.9805 -16.801,19.961 v 42.699 c 0,11.219 9.1211,20.32 20.32,20.32 h 42.699 c 11.219,0 20.32,-9.1211 20.32,-20.32 v -42.699 c 0.0781,-9.9805 -7.1992,-18.262 -16.66,-19.961 z m -35.898,-3.1211 c 0,-6.0391 4.9219,-10.961 10.961,-10.961 6.0391,0 10.961,4.9219 10.961,10.961 v 2.7617 h -21.859 v -2.7617 z m 38.66,65.801 c 0,3.5391 -2.8594,6.3398 -6.3398,6.3398 h -42.699 c -3.5391,0 -6.3398,-2.8594 -6.3398,-6.3398 v -42.699 c 0,-3.5391 2.8594,-6.3398 6.3398,-6.3398 h 42.699 c 3.5391,0 6.3398,2.8594 6.3398,6.3398 z"
     id="path23179" />
  <path
     style="stroke:#1b3382;stroke-opacity:1;stroke-width:3;stroke-dasharray:none;fill:#1b3382;fill-opacity:1"
     d="m 484.36,251.08 -39.781,-39.781 c -2.7188,-2.7188 -7.1602,-2.7188 -9.8789,0 -2.7187,2.7188 -2.7188,7.1602 0,9.8789 l 27.859,27.859 h -95 c -1.5781,-25.539 -11.82,-48.84 -27.762,-66.918 l 67.219,-67.219 v 39.418 c 0,3.8398 3.1211,6.9609 6.9609,6.9609 3.8398,0 6.9609,-3.1211 6.9609,-6.9609 l 0.0195,-56.277 c 0,-1.8398 -0.71875,-3.6406 -2.0391,-4.9609 -1.3398,-1.3398 -3.0781,-2.0391 -4.9609,-2.0391 h -56.258 c -1.9414,0 -3.6797,0.76172 -4.9609,2.0391 -1.2812,1.2812 -2.0391,3.0195 -2.0391,4.9219 0,3.8398 3.1211,6.9609 6.9609,6.9609 h 39.418 l -67.199,67.281 c -18.078,-15.98 -41.32,-26.16 -66.918,-27.762 v -95.023 l 27.859,27.859 c 2.7188,2.7188 7.1602,2.7188 9.8789,0 2.7187,-2.7188 2.7188,-7.1602 0,-9.8789 l -39.781,-39.801 c -1.2812,-1.3203 -3.0781,-2.0391 -4.9219,-2.0391 -1.8398,0 -3.6406,0.71875 -4.9219,2.0391 l -39.781,39.781 c -1.3789,1.3789 -2.0391,3.1797 -2.0391,4.9219 0,1.8008 0.66016,3.5781 2.0391,4.9219 2.7188,2.7188 7.1602,2.7188 9.8789,0 l 27.859,-27.859 v 94.98 c -25.539,1.5781 -48.84,11.82 -66.918,27.762 l -67.219,-67.117 h 39.418 c 3.8398,0 6.9609,-3.1211 6.9609,-6.9609 0,-3.8398 -3.1211,-6.9609 -6.9609,-6.9609 l -56.276998,-0.01953 c -1.8398,0 -3.6406,0.71875 -4.9609,2.0391 -1.3398,1.3398 -2.0391,3.0781 -2.0391,4.9219 v 56.258001 c 0,1.9414 0.76172,3.6797 2.0391,4.9609 1.2812,1.2812 3.0195,2.0391 4.9219,2.0391 3.839798,0 6.960898,-3.1211 6.960898,-6.9609 v -39.418 l 67.219,67.219 c -15.98,18.078 -26.16,41.32 -27.762,66.918 l -94.960998,0.0195 27.859,-27.859 c 2.7188,-2.7188 2.7188,-7.1602 0,-9.8789 -2.7188,-2.7187 -7.1602,-2.7188 -9.8789,0 l -39.801,39.738 c -1.3203,1.2812 -2.0391,3.0781 -2.0391,4.9219 0,1.8398 0.71875,3.6406 2.0391,4.9219 l 39.781,39.781 c 1.3789,1.3789 3.1797,2.0391 4.9219,2.0391 1.7383,0 3.5781,-0.66016 4.9219,-2.0391 2.7188,-2.7188 2.7188,-7.1602 0,-9.8789 l -27.859,-27.859 h 94.979998 c 1.5781,25.539 11.82,48.84 27.762,66.918 l -67.117,67.219 V 357.69 c 0,-3.8398 -3.1211,-6.9609 -6.960898,-6.9609 -1.9414,0 -3.6797,0.76172 -4.9219,2.0391 -1.2812,1.2812 -2.0391,3.0195 -2.0391,4.9609 v 56.258 c 0,1.8398 0.71875,3.6406 2.0391,4.9609 1.3398,1.3398 3.0781,2.0391 4.9219,2.0391 h 56.257998 c 3.8398,0 6.9609,-3.1211 6.9609,-6.9609 0,-3.8398 -3.1211,-6.9609 -6.9609,-6.9609 h -39.418 l 67.219,-67.219 c 18.078,15.98 41.32,26.16 66.918,27.762 v 94.98 l -27.859,-27.859 c -2.7188,-2.7188 -7.1602,-2.7188 -9.8789,0 -1.3789,1.3789 -2.0391,3.1797 -2.0391,4.9219 0,1.7383 0.66016,3.5781 2.0391,4.9219 l 39.781,39.781 c 1.3398,1.3398 3.0781,2.0391 4.9219,2.0391 1.8398,0 3.6406,-0.71875 4.9219,-2.0391 l 39.781,-39.781 c 2.7188,-2.7188 2.7188,-7.1602 0,-9.8789 -2.7188,-2.7187 -7.1602,-2.7188 -9.8789,0 l -27.859,27.859 v -94.98 c 25.539,-1.5781 48.84,-11.82 66.918,-27.762 l 67.219,67.219 h -39.418 c -3.8398,0 -6.9609,3.1211 -6.9609,6.9609 0,1.9414 0.76172,3.6797 2.0391,4.9219 1.2812,1.2188 3.0195,2.0391 4.9609,2.0391 h 56.258 c 1.8398,0 3.6406,-0.71875 4.9219,-2.0391 1.3398,-1.3398 2.0391,-3.0781 2.0391,-4.9219 l 0.0195,-56.301 c 0,-3.8398 -3.1211,-6.9609 -6.9609,-6.9609 -3.8398,0 -6.9609,3.1211 -6.9609,6.9609 v 39.418 l -67.281,-67.219 c 15.98,-18.078 26.16,-41.32 27.762,-66.918 h 94.98 l -27.859,27.859 c -2.7188,2.7188 -2.7188,7.1602 0,9.8789 1.3789,1.3789 3.1797,2.0391 4.9219,2.0391 1.7383,0 3.5781,-0.66016 4.9219,-2.0391 l 39.781,-39.781 c 1.3398,-1.3398 2.0391,-3.0781 2.0391,-4.9219 0,-1.8398 -0.62109,-3.6406 -1.9414,-4.9219 z M 256,353.84 c -53.918,0 -97.84,-43.879 -97.84,-97.84 0,-53.957 43.918,-97.84 97.84,-97.84 53.918,0 97.84,43.879 97.84,97.84 0,53.957 -43.918,97.84 -97.84,97.84 z"
     id="path17597" />
</svg>
