<?xml version="1.0" encoding="UTF-8"?>
<svg width="512pt" height="512pt" version="1.1" viewBox="0 0 512 512" xmlns="http://www.w3.org/2000/svg">
 <path d="m280.94 228.5v-3.1211c0-13.719-11.16-24.941-24.941-24.941-13.719 0-24.941 11.16-24.941 24.941v3.1211c-9.5195 1.6797-16.801 9.9805-16.801 19.961v42.699c0 11.219 9.1211 20.32 20.32 20.32h42.699c11.219 0 20.32-9.1211 20.32-20.32v-42.699c0.0781-9.9805-7.1992-18.262-16.66-19.961zm-35.898-3.1211c0-6.0391 4.9219-10.961 10.961-10.961s10.961 4.9219 10.961 10.961v2.7617h-21.859v-2.7617zm38.66 65.801c0 3.5391-2.8594 6.3398-6.3398 6.3398h-42.699c-3.5391 0-6.3398-2.8594-6.3398-6.3398v-42.699c0-3.5391 2.8594-6.3398 6.3398-6.3398h42.699c3.5391 0 6.3398 2.8594 6.3398 6.3398z" fill="#ffb000" stroke="#ffb000" stroke-width="3"/>
 <path d="m484.36 251.08-39.781-39.781c-2.7188-2.7188-7.1602-2.7188-9.8789 0s-2.7188 7.1602 0 9.8789l27.859 27.859h-95c-1.5781-25.539-11.82-48.84-27.762-66.918l67.219-67.219v39.418c0 3.8398 3.1211 6.9609 6.9609 6.9609s6.9609-3.1211 6.9609-6.9609l0.0195-56.277c0-1.8398-0.71875-3.6406-2.0391-4.9609-1.3398-1.3398-3.0781-2.0391-4.9609-2.0391h-56.258c-1.9414 0-3.6797 0.76172-4.9609 2.0391-1.2812 1.2812-2.0391 3.0195-2.0391 4.9219 0 3.8398 3.1211 6.9609 6.9609 6.9609h39.418l-67.199 67.281c-18.078-15.98-41.32-26.16-66.918-27.762v-95.023l27.859 27.859c2.7188 2.7188 7.1602 2.7188 9.8789 0s2.7188-7.1602 0-9.8789l-39.781-39.801c-1.2812-1.3203-3.0781-2.0391-4.9219-2.0391-1.8398 0-3.6406 0.71875-4.9219 2.0391l-39.781 39.781c-1.3789 1.3789-2.0391 3.1797-2.0391 4.9219 0 1.8008 0.66016 3.5781 2.0391 4.9219 2.7188 2.7188 7.1602 2.7188 9.8789 0l27.859-27.859v94.98c-25.539 1.5781-48.84 11.82-66.918 27.762l-67.219-67.117h39.418c3.8398 0 6.9609-3.1211 6.9609-6.9609s-3.1211-6.9609-6.9609-6.9609l-56.277-0.01953c-1.8398 0-3.6406 0.71875-4.9609 2.0391-1.3398 1.3398-2.0391 3.0781-2.0391 4.9219v56.258c0 1.9414 0.76172 3.6797 2.0391 4.9609 1.2812 1.2812 3.0195 2.0391 4.9219 2.0391 3.8398 0 6.9609-3.1211 6.9609-6.9609v-39.418l67.219 67.219c-15.98 18.078-26.16 41.32-27.762 66.918l-94.961 0.0195 27.859-27.859c2.7188-2.7188 2.7188-7.1602 0-9.8789s-7.1602-2.7188-9.8789 0l-39.801 39.738c-1.3203 1.2812-2.0391 3.0781-2.0391 4.9219 0 1.8398 0.71875 3.6406 2.0391 4.9219l39.781 39.781c1.3789 1.3789 3.1797 2.0391 4.9219 2.0391 1.7383 0 3.5781-0.66016 4.9219-2.0391 2.7188-2.7188 2.7188-7.1602 0-9.8789l-27.859-27.859h94.98c1.5781 25.539 11.82 48.84 27.762 66.918l-67.117 67.219v-39.418c0-3.8398-3.1211-6.9609-6.9609-6.9609-1.9414 0-3.6797 0.76172-4.9219 2.0391-1.2812 1.2812-2.0391 3.0195-2.0391 4.9609v56.258c0 1.8398 0.71875 3.6406 2.0391 4.9609 1.3398 1.3398 3.0781 2.0391 4.9219 2.0391h56.258c3.8398 0 6.9609-3.1211 6.9609-6.9609s-3.1211-6.9609-6.9609-6.9609h-39.418l67.219-67.219c18.078 15.98 41.32 26.16 66.918 27.762v94.98l-27.859-27.859c-2.7188-2.7188-7.1602-2.7188-9.8789 0-1.3789 1.3789-2.0391 3.1797-2.0391 4.9219 0 1.7383 0.66016 3.5781 2.0391 4.9219l39.781 39.781c1.3398 1.3398 3.0781 2.0391 4.9219 2.0391 1.8398 0 3.6406-0.71875 4.9219-2.0391l39.781-39.781c2.7188-2.7188 2.7188-7.1602 0-9.8789s-7.1602-2.7188-9.8789 0l-27.859 27.859v-94.98c25.539-1.5781 48.84-11.82 66.918-27.762l67.219 67.219h-39.418c-3.8398 0-6.9609 3.1211-6.9609 6.9609 0 1.9414 0.76172 3.6797 2.0391 4.9219 1.2812 1.2188 3.0195 2.0391 4.9609 2.0391h56.258c1.8398 0 3.6406-0.71875 4.9219-2.0391 1.3398-1.3398 2.0391-3.0781 2.0391-4.9219l0.0195-56.301c0-3.8398-3.1211-6.9609-6.9609-6.9609s-6.9609 3.1211-6.9609 6.9609v39.418l-67.281-67.219c15.98-18.078 26.16-41.32 27.762-66.918h94.98l-27.859 27.859c-2.7188 2.7188-2.7188 7.1602 0 9.8789 1.3789 1.3789 3.1797 2.0391 4.9219 2.0391 1.7383 0 3.5781-0.66016 4.9219-2.0391l39.781-39.781c1.3398-1.3398 2.0391-3.0781 2.0391-4.9219 0-1.8398-0.62109-3.6406-1.9414-4.9219zm-228.36 102.76c-53.918 0-97.84-43.879-97.84-97.84 0-53.957 43.918-97.84 97.84-97.84 53.918 0 97.84 43.879 97.84 97.84 0 53.957-43.918 97.84-97.84 97.84z" fill="#3f3" stroke="#3f3" stroke-width="3"/>
</svg>
