<?xml version="1.0" encoding="UTF-8" standalone="no"?>
<svg
   width="512pt"
   height="512pt"
   version="1.1"
   viewBox="0 0 512 512"
   id="svg10189"
   sodipodi:docname="simple-icon-bi-color.svg"
   inkscape:version="1.2.2 (b0a84865, 2022-12-01)"
   xmlns:inkscape="http://www.inkscape.org/namespaces/inkscape"
   xmlns:sodipodi="http://sodipodi.sourceforge.net/DTD/sodipodi-0.dtd"
   xmlns="http://www.w3.org/2000/svg"
   xmlns:svg="http://www.w3.org/2000/svg">
  <defs
     id="defs10193" />
  <sodipodi:namedview
     id="namedview10191"
     pagecolor="#ffffff"
     bordercolor="#666666"
     borderopacity="1.0"
     inkscape:showpageshadow="2"
     inkscape:pageopacity="0.0"
     inkscape:pagecheckerboard="0"
     inkscape:deskcolor="#d1d1d1"
     inkscape:document-units="pt"
     showgrid="false"
     inkscape:zoom="0.93457031"
     inkscape:cx="340.79833"
     inkscape:cy="341.33333"
     inkscape:window-width="1274"
     inkscape:window-height="832"
     inkscape:window-x="0"
     inkscape:window-y="43"
     inkscape:window-maximized="0"
     inkscape:current-layer="g10187" />
  <g
     id="g10187">
    <path
       d="m86.527 352.77c0 9.3281-7.5625 16.895-16.895 16.895-9.332 0-16.898-7.5664-16.898-16.895 0-9.332 7.5664-16.898 16.898-16.898 9.332 0 16.895 7.5664 16.895 16.898"
       id="path10177"
       style="fill:#1b3382;fill-opacity:1" />
    <path
       d="m465.41 212.48h-177.15c3.5859-10.754 7.6797-26.113 9.2148-41.984 1.0234-10.754 0.51172-22.527-1.5352-35.328-3.0703-18.434-17.406-33.281-36.352-36.352-14.848-2.5586-28.672 7.168-32.258 22.016l-7.168 33.793c-3.5859 17.406-12.801 33.793-26.113 46.078l-39.938 37.887c-4.0977 3.5859-9.2148 5.6328-14.336 5.6328h-15.871c-3.5859-12.801-14.848-22.016-28.672-22.016h-52.734c-16.383 0-29.695 13.312-29.695 29.695v125.95c0 16.383 13.312 29.695 29.695 29.695h53.246c13.824 0 25.602-9.7266 28.672-22.527h24.574l3.0703 4.6094c14.336 23.039 38.91 36.863 66.047 36.863h6.6562c27.137 0 64-2.0469 97.281-9.2148 3.0703 1.0234 6.6562 2.0469 10.238 2.0469h36.352c18.434 0 33.793-15.359 33.793-33.793 0-7.6797-2.5586-14.336-6.6562-19.969 7.6797-6.1445 13.312-15.871 13.312-26.625 0-7.168-2.5586-13.824-6.1445-19.457 8.1914-6.1445 13.824-15.871 13.824-27.137 0-4.6094-1.0234-8.7031-2.5586-12.801h50.688c18.434 0 33.793-15.359 33.793-33.793 0.51562-17.914-14.844-33.273-33.277-33.273zm-360.45 165.89c0 4.6094-4.0977 8.7031-8.7031 8.7031h-53.762c-4.6094 0-8.7031-4.0977-8.7031-8.7031v-125.95c0-4.6094 4.0977-8.7031 8.7031-8.7031h53.246c4.6094 0 8.7031 4.0977 8.7031 8.7031l0.003907 125.95zm264.19 19.969h-36.352c-7.168 0-12.801-5.6328-12.801-12.801 0-7.168 5.6328-12.801 12.801-12.801h36.352c7.168 0 12.801 5.6328 12.801 12.801-0.51172 7.168-6.1445 12.801-12.801 12.801zm6.6562-46.078h-49.664c-7.168 0-12.801-5.6328-12.801-12.801s5.6328-12.801 12.801-12.801h49.664c7.168 0 12.801 5.6328 12.801 12.801-0.51172 6.6562-6.1445 12.801-12.801 12.801zm7.168-46.594h-64.512c-7.168 0-12.801-5.6328-12.801-12.801s5.6328-12.801 12.801-12.801h64.512c7.168 0 12.801 5.6328 12.801 12.801s-5.6328 12.801-12.801 12.801zm82.43-46.594h-146.94c-11.777 0-22.016 6.1445-28.16 14.848-25.602 38.91-64.512 29.184-66.047 29.184-5.6328-1.5352-11.266 1.5352-12.801 7.6797-1.5352 5.6328 2.0469 11.266 7.6797 12.801 4.6094 1.0234 10.754 2.0469 17.922 2.0469 15.359 0 34.305-4.0977 51.711-17.922 2.5586 5.1211 6.1445 9.2148 10.238 12.289-4.0977 5.6328-6.1445 12.289-6.1445 19.457 0 10.754 5.1211 20.48 13.312 26.625-4.0977 5.6328-6.6562 12.289-6.6562 19.969 0 5.1211 1.0234 10.238 3.5859 14.336-30.207 5.1211-61.441 6.1445-83.969 6.1445-19.457 0-37.887-10.238-48.129-27.137l-6.1445-9.7266c-2.0469-3.0703-5.1211-5.1211-9.2148-5.1211h-29.184v-98.816h14.848c10.754 0 20.992-4.0977 29.184-11.777l39.938-37.887c16.383-15.359 27.137-35.328 31.742-56.832l7.168-33.793c1.0234-3.5859 4.0977-6.1445 7.6797-5.6328 9.2148 1.5352 16.895 9.2148 18.434 18.945 2.0469 10.754 2.5586 20.992 1.5352 29.695-2.5586 25.602-12.801 50.176-12.801 50.688-1.5352 3.0703-1.0234 7.168 1.0234 9.7266 2.0469 3.0703 5.1211 4.6094 8.7031 4.6094h192c7.168 0 12.801 5.6328 12.801 12.801-0.51172 7.1719-6.6562 12.801-13.312 12.801z"
       id="path10179"
       style="fill:#1b3382;fill-opacity:1" />
    <path
       d="m386.56 140.8c1.5352 1.0234 3.5859 1.5352 5.1211 1.5352 3.5859 0 7.168-2.0469 9.2148-5.1211l15.359-26.625c3.0703-5.1211 1.0234-11.777-4.0977-14.336-5.1211-3.0703-11.777-1.0234-14.336 4.0977l-15.359 26.625c-2.5586 4.0938-1.0195 10.75 4.0977 13.824z"
       id="path10181"
       style="fill:#d96201;fill-opacity:1" />
    <path
       d="m329.73 127.49c1.0234 4.6094 5.6328 7.6797 10.238 7.6797 1.0234 0 2.0469 0 2.5586-0.51172 5.6328-1.5352 9.2148-7.168 7.6797-12.801l-8.1914-29.695c-1.5352-5.6328-7.6797-9.2148-12.801-7.6797-5.6328 1.5352-9.2148 7.168-7.6797 12.801z"
       id="path10183"
       style="fill:#d96201;fill-opacity:1" />
    <path
       d="m413.7 175.62c1.0234 4.6094 5.6328 7.6797 10.238 7.6797 1.0234 0 2.0469 0 2.5586-0.51172l29.695-8.1914c5.6328-1.5352 9.2148-7.168 7.6797-12.801-1.5352-5.6328-7.168-9.2148-12.801-7.6797l-29.695 8.1914c-5.6289 2.0469-9.2109 7.6797-7.6758 13.312z"
       id="path10185"
       style="fill:#d96201;fill-opacity:1" />
  </g>
</svg>
