<?xml version="1.0" encoding="UTF-8" standalone="no"?>
<!-- Created with Inkscape (http://www.inkscape.org/) -->

<svg
   width="600mm"
   height="400mm"
   viewBox="0 0 600 400"
   version="1.1"
   id="svg2925"
   inkscape:version="1.2.2 (b0a84865, 2022-12-01)"
   sodipodi:docname="sql-vs-no-sql.svg"
   xmlns:inkscape="http://www.inkscape.org/namespaces/inkscape"
   xmlns:sodipodi="http://sodipodi.sourceforge.net/DTD/sodipodi-0.dtd"
   xmlns="http://www.w3.org/2000/svg"
   xmlns:svg="http://www.w3.org/2000/svg">
  <sodipodi:namedview
     id="namedview2927"
     pagecolor="#ffffff"
     bordercolor="#666666"
     borderopacity="1.0"
     inkscape:showpageshadow="2"
     inkscape:pageopacity="0.0"
     inkscape:pagecheckerboard="0"
     inkscape:deskcolor="#d1d1d1"
     inkscape:document-units="mm"
     showgrid="false"
     inkscape:zoom="0.31970486"
     inkscape:cx="1133.8583"
     inkscape:cy="1133.8583"
     inkscape:window-width="1512"
     inkscape:window-height="945"
     inkscape:window-x="212"
     inkscape:window-y="1117"
     inkscape:window-maximized="0"
     inkscape:current-layer="layer1" />
  <defs
     id="defs2922" />
  <g
     inkscape:label="Layer 1"
     inkscape:groupmode="layer"
     id="layer1">
    <g
       id="g2628"
       transform="matrix(0.35277777,0,0,0.35277777,365.23775,50.033829)"
       style="fill:#1b3382;fill-opacity:1;stroke:none;stroke-opacity:1">
      <path
         d="M 384,0 H 164.57 c -26.516,0 -50.285,16.457 -59.43,41.145 -16.457,6.3984 -30.172,19.199 -36.57,36.57 -23.77,9.1406 -41.141,32 -41.141,59.43 v 310.86 c 0,35.656 28.344,64 64,64 h 256 c 27.43,0 50.285,-17.371 59.43,-41.145 17.371,-6.3984 30.172,-20.113 36.57,-36.57 24.688,-9.1445 41.145,-32.914 41.145,-59.43 L 484.57,100.57 C 484.57009,44.8 439.76909,0 384.00009,0 Z m 9.1445,448 c 0,25.602 -20.113,45.715 -45.715,45.715 h -256 c -25.602,0 -45.715,-20.113 -45.715,-45.715 V 137.14 c 0,-25.602 20.113,-45.715 45.715,-45.715 h 256 c 25.602,0 45.715,20.113 45.715,45.715 z m 18.285,0 V 137.14 c 0,-35.656 -28.344,-64 -64,-64 h -256 c 8.2305,-10.973 21.941,-18.285 36.57,-18.285 h 237.71 c 35.656,0 64,28.344 64,64 v 292.57 c 0,14.629 -7.3164,28.34 -18.285,36.57 z m 54.855,-73.145 c 0,14.629 -7.3125,27.43 -18.285,36.57 v -292.57 c 0,-45.715 -36.57,-82.285 -82.285,-82.285 h -237.71 c 8.2305,-10.973 21.941,-18.285 36.57,-18.285 h 219.43 c 45.715,0 82.285,36.57 82.285,82.285 z"
         id="path2616"
         style="fill:#1b3382;fill-opacity:1;stroke:none;stroke-opacity:1" />
      <path
         d="M 329.14,155.43 H 109.71 c -5.4844,0 -9.1445,3.6562 -9.1445,9.1445 0,5.4844 3.6562,9.1445 9.1445,9.1445 h 219.43 c 5.4844,0 9.1445,-3.6562 9.1445,-9.1445 -0.004,-5.4883 -3.6602,-9.1445 -9.1445,-9.1445 z"
         id="path2618"
         style="fill:#1b3382;fill-opacity:1;stroke:none;stroke-opacity:1" />
      <path
         d="M 329.14,219.43 H 109.71 c -5.4844,0 -9.1445,3.6562 -9.1445,9.1445 0,5.4844 3.6562,9.1445 9.1445,9.1445 h 219.43 c 5.4844,0 9.1445,-3.6562 9.1445,-9.1445 -0.004,-5.4883 -3.6602,-9.1445 -9.1445,-9.1445 z"
         id="path2620"
         style="fill:#1b3382;fill-opacity:1;stroke:none;stroke-opacity:1" />
      <path
         d="M 329.14,283.43 H 109.71 c -5.4844,0 -9.1445,3.6562 -9.1445,9.1445 0,5.4844 3.6562,9.1445 9.1445,9.1445 h 219.43 c 5.4844,0 9.1445,-3.6562 9.1445,-9.1445 -0.004,-5.4883 -3.6602,-9.1445 -9.1445,-9.1445 z"
         id="path2622"
         style="fill:#1b3382;fill-opacity:1;stroke:none;stroke-opacity:1" />
      <path
         d="M 329.14,347.43 H 109.71 c -5.4844,0 -9.1445,3.6562 -9.1445,9.1445 0,5.4844 3.6562,9.1445 9.1445,9.1445 h 219.43 c 5.4844,0 9.1445,-3.6562 9.1445,-9.1445 -0.004,-5.4883 -3.6602,-9.1445 -9.1445,-9.1445 z"
         id="path2624"
         style="fill:#1b3382;fill-opacity:1;stroke:none;stroke-opacity:1" />
      <path
         d="M 329.14,411.43 H 109.71 c -5.4844,0 -9.1445,3.6562 -9.1445,9.1445 0,5.4844 3.6562,9.1445 9.1445,9.1445 h 219.43 c 5.4844,0 9.1445,-3.6562 9.1445,-9.1445 -0.004,-5.4883 -3.6602,-9.1445 -9.1445,-9.1445 z"
         id="path2626"
         style="fill:#1b3382;fill-opacity:1;stroke:none;stroke-opacity:1" />
    </g>
    <path
       style="fill:#1b3382;fill-opacity:1;stroke:none;stroke-width:0.352778;stroke-opacity:1"
       d="M 154.12641,107.90213 H 131.54864 V 79.679909 c 0,-3.11573 -2.52872,-5.64444 -5.64445,-5.64444 H 69.459757 c -3.115733,0 -5.644444,2.52871 -5.644444,5.64444 V 141.7688 c 0,3.11573 2.528711,5.64444 5.644444,5.64444 h 22.577778 v 50.8 c 0,3.11574 2.52871,5.64445 5.64444,5.64445 h 11.288885 v 22.57778 c 0,3.11573 2.52871,5.64444 5.64444,5.64444 h 56.44445 c 3.12127,0 5.64444,-2.52871 5.64444,-5.64444 v -22.57778 h 11.28889 c 3.12127,0 5.64444,-2.52871 5.64444,-5.64445 v -50.8 m 0,0 h 22.57778 c 3.12127,0 5.64444,-2.52871 5.64444,-5.64444 V 79.679909 c 0,-3.11573 -2.52317,-5.64444 -5.64444,-5.64444 h -56.44444 c -3.12127,0 -5.64445,2.52871 -5.64445,5.64444 V 107.90213 M 165.4153,85.324359 h 45.15556 v 5.64444 H 165.4153 Z m -90.311099,0 h 45.155549 v 5.64444 H 75.104201 Z m 0,50.800001 v -33.86667 h 45.155549 v 33.86667 z m 90.311099,39.51111 h -45.15555 v -5.64445 h 45.15555 z m -45.15555,45.15555 v -33.86666 h 45.15555 v 33.86666 z m 33.86666,-101.6 v 22.57778 c 0,3.11573 2.52318,5.64444 5.64445,5.64444 h 22.57777 m 0,0 v 45.15556 h -5.64444 v -28.22222 c 0,-3.11574 -2.52317,-5.64445 -5.64444,-5.64445 H 114.6153 c -3.11573,0 -5.64444,2.52871 -5.64444,5.64445 v 28.22222 h -5.64445 v -45.15556 h 22.57778 c 3.11573,0 5.64445,-2.52871 5.64445,-5.64444 v -22.57778 h 22.57777 m 56.44445,16.93334 H 165.4153 v -33.86667 h 45.15556 z"
       id="path2797"
       sodipodi:nodetypes="ccsssssscsscsssscssccsssssscccccccccccccccccccccccccccssccccsssscccssccccccc" />
    <text
       xml:space="preserve"
       style="font-style:normal;font-variant:normal;font-weight:normal;font-stretch:normal;font-size:64.5583px;line-height:1.25;font-family:'Tamil Sangam MN';-inkscape-font-specification:'Tamil Sangam MN';fill:#d96201;fill-opacity:1;stroke:none;stroke-width:0.264583;stroke-opacity:1"
       x="83.511986"
       y="346.27802"
       id="text3122"><tspan
         sodipodi:role="line"
         id="tspan3120"
         style="font-style:normal;font-variant:normal;font-weight:bold;font-stretch:normal;font-size:64.5583px;font-family:'Tamil Sangam MN';-inkscape-font-specification:'Tamil Sangam MN';fill:#d96201;fill-opacity:1;stroke:none;stroke-width:0.264583;stroke-opacity:1"
         x="83.511986"
         y="346.27802">SQL</tspan></text>
    <text
       xml:space="preserve"
       style="font-style:normal;font-variant:normal;font-weight:normal;font-stretch:normal;font-size:64.5583px;line-height:1.25;font-family:'Tamil Sangam MN';-inkscape-font-specification:'Tamil Sangam MN';fill:#d96201;fill-opacity:1;stroke:none;stroke-width:0.264583;stroke-opacity:1"
       x="269.42307"
       y="156.39082"
       id="text3126"><tspan
         sodipodi:role="line"
         id="tspan3124"
         style="font-style:normal;font-variant:normal;font-weight:bold;font-stretch:normal;font-size:64.5583px;font-family:'Tamil Sangam MN';-inkscape-font-specification:'Tamil Sangam MN';fill:#d96201;fill-opacity:1;stroke:none;stroke-width:0.264583;stroke-opacity:1"
         x="269.42307"
         y="156.39082">vs</tspan></text>
    <text
       xml:space="preserve"
       style="font-style:normal;font-variant:normal;font-weight:normal;font-stretch:normal;font-size:64.5583px;line-height:1.25;font-family:'Tamil Sangam MN';-inkscape-font-specification:'Tamil Sangam MN';fill:#1b3382;fill-opacity:1;stroke:none;stroke-width:0.264583;stroke-opacity:1"
       x="355.78033"
       y="346.27802"
       id="text3130"><tspan
         sodipodi:role="line"
         id="tspan3128"
         style="font-style:normal;font-variant:normal;font-weight:bold;font-stretch:normal;font-size:64.5583px;font-family:'Tamil Sangam MN';-inkscape-font-specification:'Tamil Sangam MN';fill:#1b3382;fill-opacity:1;stroke:none;stroke-width:0.264583;stroke-opacity:1"
         x="355.78033"
         y="346.27802"><tspan
   style="fill:#d96201;fill-opacity:1;stroke:none"
   id="tspan6925">No</tspan>SQL</tspan></text>
  </g>
</svg>
