<?xml version="1.0" encoding="UTF-8" standalone="no"?>
<!-- Created with Inkscape (http://www.inkscape.org/) -->

<svg
   width="384mm"
   height="216mm"
   viewBox="0 0 384 215.99999"
   version="1.1"
   id="svg470"
   inkscape:version="1.2.2 (b0a84865, 2022-12-01)"
   sodipodi:docname="how-the-website-works-final-dark.svg"
   xml:space="preserve"
   inkscape:export-filename="../how-the-website-works-final.png"
   inkscape:export-xdpi="254"
   inkscape:export-ydpi="254"
   xmlns:inkscape="http://www.inkscape.org/namespaces/inkscape"
   xmlns:sodipodi="http://sodipodi.sourceforge.net/DTD/sodipodi-0.dtd"
   xmlns="http://www.w3.org/2000/svg"
   xmlns:svg="http://www.w3.org/2000/svg"><sodipodi:namedview
     id="namedview472"
     pagecolor="#ffffff"
     bordercolor="#666666"
     borderopacity="1.0"
     inkscape:showpageshadow="2"
     inkscape:pageopacity="0.0"
     inkscape:pagecheckerboard="0"
     inkscape:deskcolor="#d1d1d1"
     inkscape:document-units="mm"
     showgrid="false"
     inkscape:zoom="1.7900198"
     inkscape:cx="1099.4292"
     inkscape:cy="271.50537"
     inkscape:window-width="1920"
     inkscape:window-height="1080"
     inkscape:window-x="0"
     inkscape:window-y="0"
     inkscape:window-maximized="0"
     inkscape:current-layer="layer1" /><defs
     id="defs467"><marker
       style="overflow:visible"
       id="marker5141"
       refX="0"
       refY="0"
       orient="auto-start-reverse"
       inkscape:stockid="Arrow3"
       markerWidth="4.2071066"
       markerHeight="7"
       viewBox="0 0 4.2071068 7"
       inkscape:isstock="true"
       inkscape:collect="always"
       preserveAspectRatio="xMidYMid"><path
         style="fill:none;stroke:context-stroke;stroke-width:1;stroke-linecap:round"
         d="M 3,-3 0,0 3,3"
         id="path5139"
         transform="rotate(180,0.125,0)"
         sodipodi:nodetypes="ccc" /></marker><marker
       style="overflow:visible"
       id="Arrow3"
       refX="0"
       refY="0"
       orient="auto-start-reverse"
       inkscape:stockid="Arrow3"
       markerWidth="4.2071066"
       markerHeight="7"
       viewBox="0 0 4.2071068 7"
       inkscape:isstock="true"
       inkscape:collect="always"
       preserveAspectRatio="xMidYMid"><path
         style="fill:none;stroke:context-stroke;stroke-width:1;stroke-linecap:round"
         d="M 3,-3 0,0 3,3"
         id="arrow3"
         transform="rotate(180,0.125,0)"
         sodipodi:nodetypes="ccc" /></marker><inkscape:path-effect
       effect="fill_between_many"
       method="originald"
       linkedpaths="#path2747,0,1|#path2728,0,1"
       id="path-effect2749"
       is_visible="true"
       lpeversion="0"
       join="true"
       close="true"
       autoreverse="true" /></defs><g
     inkscape:label="Layer 1"
     inkscape:groupmode="layer"
     id="layer1"
     transform="translate(325.14326,116.9215)"><path
       d="m -283.39639,-37.723571 h -30.91758 c -1.59094,0 -3.11681,0.631953 -4.24197,1.756777 -1.1248,1.125162 -1.75678,2.65103 -1.75678,4.241972 v 23.0728217 c 0,1.5909374 0.63195,3.1168006 1.75678,4.2419675 1.12516,1.1248044 2.65103,1.756777 4.24197,1.756777 h 30.91758 c 1.59094,0 3.11681,-0.6319383 4.24197,-1.756777 1.1248,-1.1251669 1.75678,-2.6510301 1.75678,-4.2419675 V -31.724822 c 0,-1.590942 -0.63195,-3.11681 -1.75678,-4.241972 -1.12516,-1.1248 -2.65103,-1.756777 -4.24197,-1.756777 z m 3.23019,29.071747 c 0,0.8565633 -0.34009,1.6782777 -0.94599,2.2842128 -0.6059,0.6055581 -1.42763,0.9459852 -2.2842,0.9459852 h -30.91758 c -0.85657,0 -1.67828,-0.3404467 -2.28421,-0.9459852 -0.6059,-0.6059155 -0.94598,-1.4276299 -0.94598,-2.2842128 v -16.15097 h 37.37796 z m 0,-18.919708 h -37.37796 v -4.152927 c 0,-0.856569 0.34009,-1.678278 0.94598,-2.284208 0.60591,-0.605558 1.42763,-0.94599 2.28421,-0.94599 h 30.91758 c 0.85656,0 1.67827,0.340446 2.2842,0.94599 0.60591,0.605901 0.94599,1.42763 0.94599,2.284208 z"
       id="path608"
       style="fill:#33ff33;fill-opacity:1;stroke-width:0.0901282" /><path
       d="m -305.08484,-31.263273 c 0,1.274143 -1.03296,2.307101 -2.3071,2.307101 -1.27451,0 -2.30747,-1.032958 -2.30747,-2.307101 0,-1.274506 1.03296,-2.307464 2.30747,-2.307464 1.27414,0 2.3071,1.032958 2.3071,2.307464"
       id="path610"
       style="fill:#33ff33;fill-opacity:1;stroke-width:0.0901282" /><path
       d="m -299.08591,-31.263273 c 0,1.274143 -1.03332,2.307101 -2.30746,2.307101 -1.27414,0 -2.30746,-1.032958 -2.30746,-2.307101 0,-1.274506 1.03332,-2.307464 2.30746,-2.307464 1.27414,0 2.30746,1.032958 2.30746,2.307464"
       id="path612"
       style="fill:#33ff33;fill-opacity:1;stroke-width:0.0901282" /><path
       d="m -311.08377,-31.263273 c 0,1.274143 -1.03296,2.307101 -2.30747,2.307101 -1.27414,0 -2.3071,-1.032958 -2.3071,-2.307101 0,-1.274506 1.03296,-2.307464 2.3071,-2.307464 1.27451,0 2.30747,1.032958 2.30747,2.307464"
       id="path614"
       style="fill:#33ff33;fill-opacity:1;stroke-width:0.0901282" /><path
       d="m -299.13188,-11.790176 3.46075,4.107142 2.8147,-2.353519 -3.46074,-4.107141 4.79897,-1.707117 -14.67378,-7.33734 4.52227,15.7354774 z"
       id="path616"
       style="fill:#ffbb00;fill-opacity:1;stroke-width:0.0901282;stroke:#ffbb00;stroke-opacity:1" /><text
       xml:space="preserve"
       style="font-size:9.33059px;line-height:1.25;font-family:'Century Gothic';-inkscape-font-specification:'Century Gothic';fill:#33ff33;fill-opacity:1;stroke-width:0.129591"
       x="-316.69174"
       y="7.0957074"
       id="text1554"><tspan
         sodipodi:role="line"
         id="tspan1552"
         style="font-style:normal;font-variant:normal;font-weight:600;font-stretch:normal;font-size:9.33059px;font-family:'Century Gothic';-inkscape-font-specification:'Century Gothic Semi-Bold';fill:#33ff33;fill-opacity:1;stroke-width:0.129591"
         x="-316.69174"
         y="7.0957074">Browser</tspan></text><text
       xml:space="preserve"
       style="font-size:9.33059px;line-height:1.25;font-family:'Century Gothic';-inkscape-font-specification:'Century Gothic';text-align:center;text-anchor:middle;fill:#33ff33;fill-opacity:1;stroke-width:0.129591"
       x="-169.9921"
       y="63.82616"
       id="text2115"><tspan
         sodipodi:role="line"
         style="font-style:normal;font-variant:normal;font-weight:600;font-stretch:normal;font-size:9.33059px;font-family:'Century Gothic';-inkscape-font-specification:'Century Gothic Semi-Bold';text-align:center;text-anchor:middle;fill:#33ff33;fill-opacity:1;stroke-width:0.129591"
         x="-169.9921"
         y="63.82616"
         id="tspan2113">CloudFront</tspan></text><path
       d="m -164.32087,-25.099346 h -11.28309 c -0.59186,0 -1.07278,0.480918 -1.07278,1.072782 v 2.922468 c 0,0.591864 0.48092,1.072782 1.07278,1.072782 h 11.28309 c 0.59186,0 1.07278,-0.480918 1.07278,-1.072782 v -2.922468 c 0,-0.591864 -0.48092,-1.072782 -1.07278,-1.072782 z m 0.27744,3.99525 c 0,0.148037 -0.12955,0.277443 -0.27744,0.277443 h -11.28309 c -0.14804,0 -0.27744,-0.129547 -0.27744,-0.277443 v -2.922468 c 0,-0.148037 0.12954,-0.277442 0.27744,-0.277442 h 11.28309 c 0.14803,0 0.27744,0.129546 0.27744,0.277442 z"
       id="path1610-0"
       style="fill:#33ff33;fill-opacity:1;stroke-width:0.0361267" /><path
       d="m -173.4584,-22.565276 c 0,0.337135 -0.27321,0.610361 -0.61036,0.610361 -0.33713,0 -0.61036,-0.273208 -0.61036,-0.610361 0,-0.337134 0.27321,-0.610469 0.61036,-0.610469 0.33714,0 0.61036,0.273349 0.61036,0.610469"
       id="path1612-4"
       style="fill:#33ff33;fill-opacity:1;stroke-width:0.0361267" /><path
       d="m -171.31283,-22.565276 c 0,0.337135 -0.27335,0.610361 -0.61047,0.610361 -0.337,0 -0.61036,-0.273208 -0.61036,-0.610361 0,-0.337134 0.27335,-0.610469 0.61036,-0.610469 0.33713,0 0.61047,0.273349 0.61047,0.610469"
       id="path1614-2"
       style="fill:#ffbb00;fill-opacity:1;stroke-width:0.0361267;stroke:#ffbb00;stroke-opacity:1" /><path
       d="m -165.50475,-23.027697 h -4.40239 c -0.12955,0 -0.24047,0.110919 -0.24047,0.240466 v 0.425464 c 0,0.129547 0.11092,0.240467 0.24047,0.240467 h 4.40239 c 0.12955,0 0.24047,-0.11092 0.24047,-0.240467 v -0.425464 c 0,-0.129547 -0.11092,-0.240466 -0.24047,-0.240466 z"
       id="path1616-3"
       style="fill:#33ff33;fill-opacity:1;stroke-width:0.0361267" /><path
       d="m -164.32087,-18.847297 h -11.28309 c -0.59186,0 -1.07278,0.480918 -1.07278,1.072782 v 2.922468 c 0,0.591864 0.48092,1.072782 1.07278,1.072782 h 11.28309 c 0.59186,0 1.07278,-0.480918 1.07278,-1.072782 v -2.922468 c 0,-0.591864 -0.48092,-1.072782 -1.07278,-1.072782 z m 0.27744,3.99525 c 0,0.148037 -0.12955,0.277442 -0.27744,0.277442 h -11.28309 c -0.14804,0 -0.27744,-0.129546 -0.27744,-0.277442 v -2.922577 c 0,-0.148036 0.12954,-0.277442 0.27744,-0.277442 h 11.28309 c 0.14803,0 0.27744,0.129547 0.27744,0.277442 z"
       id="path1618-3"
       style="fill:#33ff33;fill-opacity:1;stroke-width:0.0361267" /><path
       d="m -173.4584,-16.313371 c 0,0.337134 -0.27321,0.61036 -0.61036,0.61036 -0.33713,0 -0.61036,-0.273208 -0.61036,-0.61036 0,-0.337153 0.27321,-0.610361 0.61036,-0.610361 0.33714,0 0.61036,0.273208 0.61036,0.610361"
       id="path1620-7"
       style="fill:#ffbb00;fill-opacity:1;stroke-width:0.0361267;stroke:#ffbb00;stroke-opacity:1" /><path
       d="m -171.31283,-16.313371 c 0,0.337134 -0.27335,0.61036 -0.61047,0.61036 -0.337,0 -0.61036,-0.273208 -0.61036,-0.61036 0,-0.337153 0.27335,-0.610361 0.61036,-0.610361 0.33713,0 0.61047,0.273208 0.61047,0.610361"
       id="path1622-0"
       style="fill:#33ff33;fill-opacity:1;stroke-width:0.0361267" /><path
       d="m -165.50475,-16.775793 h -4.40239 c -0.12955,0 -0.24047,0.11092 -0.24047,0.240466 v 0.425465 c 0,0.129546 0.11092,0.240466 0.24047,0.240466 h 4.40239 c 0.12955,0 0.24047,-0.11092 0.24047,-0.240466 v -0.425465 c 0,-0.129405 -0.11092,-0.240466 -0.24047,-0.240466 z"
       id="path1624-0"
       style="fill:#33ff33;fill-opacity:1;stroke-width:0.0361267" /><path
       d="m -164.32087,-12.595574 h -11.28309 c -0.59186,0 -1.07278,0.480919 -1.07278,1.072782 v 2.922469 c 0,0.5918635 0.48092,1.072782 1.07278,1.072782 h 11.28309 c 0.59186,0 1.07278,-0.4809185 1.07278,-1.072782 v -2.922324 c 0,-0.592008 -0.48092,-1.072927 -1.07278,-1.072927 z m 0.27744,3.995251 c 0,0.1480363 -0.12955,0.2774421 -0.27744,0.2774421 h -11.28309 c -0.14804,0 -0.27744,-0.1295467 -0.27744,-0.2774421 v -2.922469 c 0,-0.148036 0.12954,-0.277442 0.27744,-0.277442 h 11.28309 c 0.14803,0 0.27744,0.129547 0.27744,0.277442 z"
       id="path1626-1"
       style="fill:#33ff33;fill-opacity:1;stroke-width:0.0361267" /><path
       d="m -173.4584,-10.061648 c 0,0.3371346 -0.27321,0.6104692 -0.61036,0.6104692 -0.33713,0 -0.61036,-0.273349 -0.61036,-0.6104692 0,-0.337134 0.27321,-0.61036 0.61036,-0.61036 0.33714,0 0.61036,0.273208 0.61036,0.61036"
       id="path1628-0"
       style="fill:#ffbb00;fill-opacity:1;stroke-width:0.0361267;stroke:#ffbb00;stroke-opacity:1" /><path
       d="m -171.31283,-10.061648 c 0,0.3371346 -0.27335,0.6104692 -0.61047,0.6104692 -0.337,0 -0.61036,-0.273349 -0.61036,-0.6104692 0,-0.337134 0.27335,-0.61036 0.61036,-0.61036 0.33713,0 0.61047,0.273208 0.61047,0.61036"
       id="path1630-3"
       style="fill:#33ff33;fill-opacity:1;stroke-width:0.0361267" /><path
       d="m -165.50475,-10.523708 h -4.40239 c -0.12955,0 -0.24047,0.11092 -0.24047,0.240466 v 0.4438168 c 0,0.1295467 0.11092,0.2404665 0.24047,0.2404665 h 4.40239 c 0.12955,0 0.24047,-0.1109198 0.24047,-0.2404665 v -0.4254638 c 0,-0.147896 -0.11092,-0.258815 -0.24047,-0.258815 z"
       id="path1632-0"
       style="fill:#33ff33;fill-opacity:1;stroke-width:0.0361267" /><path
       d="m -154.53246,-22.106097 c 3.61629,1.205547 6.0273,4.580792 6.0273,8.317541 0,4.701322 -3.97805,8.5585996 -8.67929,8.5585996 h -25.55595 c -4.82176,0 -8.67929,-3.8575274 -8.67929,-8.5585996 0,-4.460347 3.2548,-8.197096 7.71514,-8.679299 0.48227,-3.013488 2.4111,-5.424578 5.18361,-6.509596 2.65207,-1.085018 5.66556,-0.843711 7.95612,0.723251 2.16979,-3.978061 6.63013,-5.183608 10.60794,-3.737087 4.09851,1.566967 6.5096,5.545033 5.42458,9.884592 z m -1.44653,1.808279 c -0.60276,-0.12049 -0.96424,-0.843712 -0.84371,-1.446527 1.44652,-3.616303 -0.24097,-6.991544 -3.85752,-8.317537 -3.49578,-1.325997 -6.99155,0 -8.43875,3.616299 -0.24097,0.723256 -1.08501,0.96424 -1.68782,0.482281 -1.92882,-1.687828 -4.5808,-2.169782 -6.87111,-1.205547 -2.4111,0.96424 -3.97806,3.134355 -4.09851,5.665557 0,0.602766 -0.48228,1.085018 -1.08502,1.085018 -3.6163,0 -6.50959,2.893043 -6.50959,6.63013 0,3.616303 3.01348,6.6301292 6.63013,6.6301292 h 25.55594 c 3.6163,0 6.63013,-3.0134932 6.63013,-6.6301292 0,-3.254801 -2.29023,-5.906874 -5.42459,-6.509601 z"
       id="path132"
       style="fill:#33ff33;fill-opacity:1;stroke-width:0.0838176" /><path
       d="m -164.70811,20.596271 h -11.28309 c -0.59186,0 -1.07278,0.480918 -1.07278,1.072782 v 2.922468 c 0,0.591864 0.48092,1.072782 1.07278,1.072782 h 11.28309 c 0.59186,0 1.07278,-0.480918 1.07278,-1.072782 v -2.922468 c 0,-0.591864 -0.48092,-1.072782 -1.07278,-1.072782 z m 0.27744,3.99525 c 0,0.148037 -0.12955,0.277443 -0.27744,0.277443 h -11.28309 c -0.14804,0 -0.27744,-0.129547 -0.27744,-0.277443 v -2.922468 c 0,-0.148037 0.12954,-0.277442 0.27744,-0.277442 h 11.28309 c 0.14803,0 0.27744,0.129546 0.27744,0.277442 z"
       id="path2117"
       style="fill:#33ff33;fill-opacity:1;stroke-width:0.0361267" /><path
       d="m -173.84564,23.130341 c 0,0.337135 -0.27321,0.610361 -0.61036,0.610361 -0.33713,0 -0.61036,-0.273208 -0.61036,-0.610361 0,-0.337134 0.27321,-0.610469 0.61036,-0.610469 0.33714,0 0.61036,0.273349 0.61036,0.610469"
       id="path2119"
       style="fill:#33ff33;fill-opacity:1;stroke-width:0.0361267" /><path
       d="m -171.70007,23.130341 c 0,0.337135 -0.27335,0.610361 -0.61047,0.610361 -0.337,0 -0.61036,-0.273208 -0.61036,-0.610361 0,-0.337134 0.27335,-0.610469 0.61036,-0.610469 0.33713,0 0.61047,0.273349 0.61047,0.610469"
       id="path2121"
       style="fill:#ffbb00;fill-opacity:1;stroke-width:0.0361267;stroke:#ffbb00;stroke-opacity:1" /><path
       d="m -165.89199,22.66792 h -4.40239 c -0.12955,0 -0.24047,0.110919 -0.24047,0.240466 v 0.425464 c 0,0.129547 0.11092,0.240467 0.24047,0.240467 h 4.40239 c 0.12955,0 0.24047,-0.11092 0.24047,-0.240467 v -0.425464 c 0,-0.129547 -0.11092,-0.240466 -0.24047,-0.240466 z"
       id="path2123"
       style="fill:#33ff33;fill-opacity:1;stroke-width:0.0361267" /><path
       d="m -164.70811,26.84832 h -11.28309 c -0.59186,0 -1.07278,0.480918 -1.07278,1.072782 v 2.922468 c 0,0.591864 0.48092,1.072782 1.07278,1.072782 h 11.28309 c 0.59186,0 1.07278,-0.480918 1.07278,-1.072782 v -2.922468 c 0,-0.591864 -0.48092,-1.072782 -1.07278,-1.072782 z m 0.27744,3.99525 c 0,0.148037 -0.12955,0.277442 -0.27744,0.277442 h -11.28309 c -0.14804,0 -0.27744,-0.129546 -0.27744,-0.277442 v -2.922577 c 0,-0.148036 0.12954,-0.277442 0.27744,-0.277442 h 11.28309 c 0.14803,0 0.27744,0.129547 0.27744,0.277442 z"
       id="path2125"
       style="fill:#33ff33;fill-opacity:1;stroke-width:0.0361267" /><path
       d="m -173.84564,29.382246 c 0,0.337134 -0.27321,0.61036 -0.61036,0.61036 -0.33713,0 -0.61036,-0.273208 -0.61036,-0.61036 0,-0.337153 0.27321,-0.610361 0.61036,-0.610361 0.33714,0 0.61036,0.273208 0.61036,0.610361"
       id="path2127"
       style="fill:#ffbb00;fill-opacity:1;stroke-width:0.0361267;stroke:#ffbb00;stroke-opacity:1" /><path
       d="m -171.70007,29.382246 c 0,0.337134 -0.27335,0.61036 -0.61047,0.61036 -0.337,0 -0.61036,-0.273208 -0.61036,-0.61036 0,-0.337153 0.27335,-0.610361 0.61036,-0.610361 0.33713,0 0.61047,0.273208 0.61047,0.610361"
       id="path2129"
       style="fill:#33ff33;fill-opacity:1;stroke-width:0.0361267" /><path
       d="m -165.89199,28.919824 h -4.40239 c -0.12955,0 -0.24047,0.11092 -0.24047,0.240466 v 0.425465 c 0,0.129546 0.11092,0.240466 0.24047,0.240466 h 4.40239 c 0.12955,0 0.24047,-0.11092 0.24047,-0.240466 V 29.16029 c 0,-0.129405 -0.11092,-0.240466 -0.24047,-0.240466 z"
       id="path2131"
       style="fill:#33ff33;fill-opacity:1;stroke-width:0.0361267" /><path
       d="m -164.70811,33.100043 h -11.28309 c -0.59186,0 -1.07278,0.480919 -1.07278,1.072782 v 2.922469 c 0,0.591864 0.48092,1.072782 1.07278,1.072782 h 11.28309 c 0.59186,0 1.07278,-0.480918 1.07278,-1.072782 V 34.17297 c 0,-0.592008 -0.48092,-1.072927 -1.07278,-1.072927 z m 0.27744,3.995251 c 0,0.148036 -0.12955,0.277442 -0.27744,0.277442 h -11.28309 c -0.14804,0 -0.27744,-0.129547 -0.27744,-0.277442 v -2.922469 c 0,-0.148036 0.12954,-0.277442 0.27744,-0.277442 h 11.28309 c 0.14803,0 0.27744,0.129547 0.27744,0.277442 z"
       id="path2133"
       style="fill:#33ff33;fill-opacity:1;stroke-width:0.0361267" /><path
       d="m -173.84564,35.633969 c 0,0.337135 -0.27321,0.610469 -0.61036,0.610469 -0.33713,0 -0.61036,-0.273349 -0.61036,-0.610469 0,-0.337134 0.27321,-0.61036 0.61036,-0.61036 0.33714,0 0.61036,0.273208 0.61036,0.61036"
       id="path2135"
       style="fill:#ffbb00;fill-opacity:1;stroke-width:0.0361267;stroke:#ffbb00;stroke-opacity:1" /><path
       d="m -171.70007,35.633969 c 0,0.337135 -0.27335,0.610469 -0.61047,0.610469 -0.337,0 -0.61036,-0.273349 -0.61036,-0.610469 0,-0.337134 0.27335,-0.61036 0.61036,-0.61036 0.33713,0 0.61047,0.273208 0.61047,0.61036"
       id="path2137"
       style="fill:#33ff33;fill-opacity:1;stroke-width:0.0361267" /><path
       d="m -165.89199,35.171909 h -4.40239 c -0.12955,0 -0.24047,0.11092 -0.24047,0.240466 v 0.443817 c 0,0.129547 0.11092,0.240466 0.24047,0.240466 h 4.40239 c 0.12955,0 0.24047,-0.110919 0.24047,-0.240466 v -0.425464 c 0,-0.147896 -0.11092,-0.258815 -0.24047,-0.258815 z"
       id="path2139"
       style="fill:#33ff33;fill-opacity:1;stroke-width:0.0361267" /><path
       d="m -154.9197,23.58952 c 3.61629,1.205547 6.0273,4.580793 6.0273,8.317541 0,4.701322 -3.97805,8.5586 -8.67929,8.5586 h -25.55595 c -4.82176,0 -8.67929,-3.857528 -8.67929,-8.5586 0,-4.460347 3.2548,-8.197096 7.71514,-8.679299 0.48227,-3.013488 2.4111,-5.424578 5.18361,-6.509596 2.65207,-1.085018 5.66556,-0.843711 7.95612,0.723251 2.16979,-3.978061 6.63013,-5.183608 10.60794,-3.737087 4.09851,1.566967 6.5096,5.545033 5.42458,9.884592 z m -1.44653,1.808279 c -0.60276,-0.12049 -0.96424,-0.843711 -0.84371,-1.446527 1.44652,-3.616303 -0.24097,-6.991544 -3.85752,-8.317536 -3.49578,-1.325998 -6.99155,0 -8.43875,3.616298 -0.24097,0.723256 -1.08501,0.96424 -1.68782,0.482281 -1.92882,-1.687828 -4.5808,-2.169782 -6.87111,-1.205547 -2.4111,0.96424 -3.97806,3.134355 -4.09851,5.665557 0,0.602766 -0.48228,1.085018 -1.08502,1.085018 -3.6163,0 -6.50959,2.893043 -6.50959,6.63013 0,3.616303 3.01348,6.630129 6.63013,6.630129 h 25.55594 c 3.6163,0 6.63013,-3.013493 6.63013,-6.630129 0,-3.254801 -2.29023,-5.906874 -5.42459,-6.509601 z"
       id="path2143"
       style="fill:#33ff33;fill-opacity:1;stroke-width:0.0838176" /><path
       d="m -164.51449,-70.794965 h -11.28309 c -0.59186,0 -1.07278,0.480918 -1.07278,1.072782 v 2.922468 c 0,0.591864 0.48092,1.072782 1.07278,1.072782 h 11.28309 c 0.59186,0 1.07278,-0.480918 1.07278,-1.072782 v -2.922468 c 0,-0.591864 -0.48092,-1.072782 -1.07278,-1.072782 z m 0.27744,3.99525 c 0,0.148037 -0.12955,0.277443 -0.27744,0.277443 h -11.28309 c -0.14804,0 -0.27744,-0.129547 -0.27744,-0.277443 v -2.922468 c 0,-0.148037 0.12954,-0.277442 0.27744,-0.277442 h 11.28309 c 0.14803,0 0.27744,0.129546 0.27744,0.277442 z"
       id="path2153"
       style="fill:#33ff33;fill-opacity:1;stroke-width:0.0361267" /><path
       d="m -173.65202,-68.260895 c 0,0.337135 -0.27321,0.610361 -0.61036,0.610361 -0.33713,0 -0.61036,-0.273208 -0.61036,-0.610361 0,-0.337134 0.27321,-0.610469 0.61036,-0.610469 0.33714,0 0.61036,0.273349 0.61036,0.610469"
       id="path2155"
       style="fill:#33ff33;fill-opacity:1;stroke-width:0.0361267" /><path
       d="m -171.50645,-68.260895 c 0,0.337135 -0.27335,0.610361 -0.61047,0.610361 -0.337,0 -0.61036,-0.273208 -0.61036,-0.610361 0,-0.337134 0.27335,-0.610469 0.61036,-0.610469 0.33713,0 0.61047,0.273349 0.61047,0.610469"
       id="path2157"
       style="fill:#ffbb00;fill-opacity:1;stroke-width:0.0361267;stroke:#ffbb00;stroke-opacity:1" /><path
       d="m -165.69837,-68.723316 h -4.40239 c -0.12955,0 -0.24047,0.110919 -0.24047,0.240466 v 0.425464 c 0,0.129547 0.11092,0.240467 0.24047,0.240467 h 4.40239 c 0.12955,0 0.24047,-0.11092 0.24047,-0.240467 v -0.425464 c 0,-0.129547 -0.11092,-0.240466 -0.24047,-0.240466 z"
       id="path2159"
       style="fill:#33ff33;fill-opacity:1;stroke-width:0.0361267" /><path
       d="m -164.51449,-64.542916 h -11.28309 c -0.59186,0 -1.07278,0.480918 -1.07278,1.072782 v 2.922468 c 0,0.591864 0.48092,1.072782 1.07278,1.072782 h 11.28309 c 0.59186,0 1.07278,-0.480918 1.07278,-1.072782 v -2.922468 c 0,-0.591864 -0.48092,-1.072782 -1.07278,-1.072782 z m 0.27744,3.99525 c 0,0.148037 -0.12955,0.277442 -0.27744,0.277442 h -11.28309 c -0.14804,0 -0.27744,-0.129546 -0.27744,-0.277442 v -2.922577 c 0,-0.148036 0.12954,-0.277442 0.27744,-0.277442 h 11.28309 c 0.14803,0 0.27744,0.129547 0.27744,0.277442 z"
       id="path2161"
       style="fill:#33ff33;fill-opacity:1;stroke-width:0.0361267" /><path
       d="m -173.65202,-62.00899 c 0,0.337134 -0.27321,0.61036 -0.61036,0.61036 -0.33713,0 -0.61036,-0.273208 -0.61036,-0.61036 0,-0.337153 0.27321,-0.610361 0.61036,-0.610361 0.33714,0 0.61036,0.273208 0.61036,0.610361"
       id="path2163"
       style="fill:#ffbb00;fill-opacity:1;stroke-width:0.0361267;stroke:#ffbb00;stroke-opacity:1" /><path
       d="m -171.50645,-62.00899 c 0,0.337134 -0.27335,0.61036 -0.61047,0.61036 -0.337,0 -0.61036,-0.273208 -0.61036,-0.61036 0,-0.337153 0.27335,-0.610361 0.61036,-0.610361 0.33713,0 0.61047,0.273208 0.61047,0.610361"
       id="path2165"
       style="fill:#33ff33;fill-opacity:1;stroke-width:0.0361267" /><path
       d="m -165.69837,-62.471412 h -4.40239 c -0.12955,0 -0.24047,0.11092 -0.24047,0.240466 v 0.425465 c 0,0.129546 0.11092,0.240466 0.24047,0.240466 h 4.40239 c 0.12955,0 0.24047,-0.11092 0.24047,-0.240466 v -0.425465 c 0,-0.129405 -0.11092,-0.240466 -0.24047,-0.240466 z"
       id="path2167"
       style="fill:#33ff33;fill-opacity:1;stroke-width:0.0361267" /><path
       d="m -164.51449,-58.291193 h -11.28309 c -0.59186,0 -1.07278,0.480919 -1.07278,1.072782 v 2.922469 c 0,0.591864 0.48092,1.072782 1.07278,1.072782 h 11.28309 c 0.59186,0 1.07278,-0.480918 1.07278,-1.072782 v -2.922324 c 0,-0.592008 -0.48092,-1.072927 -1.07278,-1.072927 z m 0.27744,3.995251 c 0,0.148036 -0.12955,0.277442 -0.27744,0.277442 h -11.28309 c -0.14804,0 -0.27744,-0.129547 -0.27744,-0.277442 v -2.922469 c 0,-0.148036 0.12954,-0.277442 0.27744,-0.277442 h 11.28309 c 0.14803,0 0.27744,0.129547 0.27744,0.277442 z"
       id="path2169"
       style="fill:#33ff33;fill-opacity:1;stroke-width:0.0361267" /><path
       d="m -173.65202,-55.757267 c 0,0.337135 -0.27321,0.610469 -0.61036,0.610469 -0.33713,0 -0.61036,-0.273349 -0.61036,-0.610469 0,-0.337134 0.27321,-0.61036 0.61036,-0.61036 0.33714,0 0.61036,0.273208 0.61036,0.61036"
       id="path2171"
       style="fill:#ffbb00;fill-opacity:1;stroke-width:0.0361267;stroke:#ffbb00;stroke-opacity:1" /><path
       d="m -171.50645,-55.757267 c 0,0.337135 -0.27335,0.610469 -0.61047,0.610469 -0.337,0 -0.61036,-0.273349 -0.61036,-0.610469 0,-0.337134 0.27335,-0.61036 0.61036,-0.61036 0.33713,0 0.61047,0.273208 0.61047,0.61036"
       id="path2173"
       style="fill:#33ff33;fill-opacity:1;stroke-width:0.0361267" /><path
       d="m -165.69837,-56.219327 h -4.40239 c -0.12955,0 -0.24047,0.11092 -0.24047,0.240466 v 0.443817 c 0,0.129547 0.11092,0.240466 0.24047,0.240466 h 4.40239 c 0.12955,0 0.24047,-0.110919 0.24047,-0.240466 v -0.425464 c 0,-0.147896 -0.11092,-0.258815 -0.24047,-0.258815 z"
       id="path2175"
       style="fill:#33ff33;fill-opacity:1;stroke-width:0.0361267" /><path
       d="m -154.72608,-67.801716 c 3.61629,1.205547 6.0273,4.580792 6.0273,8.317541 0,4.701322 -3.97805,8.5586 -8.67929,8.5586 h -25.55595 c -4.82176,0 -8.67929,-3.857528 -8.67929,-8.5586 0,-4.460347 3.2548,-8.197096 7.71514,-8.679299 0.48227,-3.013488 2.4111,-5.424578 5.18361,-6.509596 2.65207,-1.085018 5.66556,-0.843711 7.95612,0.723251 2.16979,-3.978061 6.63013,-5.183608 10.60794,-3.737087 4.09851,1.566967 6.5096,5.545033 5.42458,9.884592 z m -1.44653,1.808279 c -0.60276,-0.12049 -0.96424,-0.843712 -0.84371,-1.446527 1.44652,-3.616303 -0.24097,-6.991544 -3.85752,-8.317537 -3.49578,-1.325997 -6.99155,0 -8.43875,3.616299 -0.24097,0.723256 -1.08501,0.96424 -1.68782,0.482281 -1.92882,-1.687828 -4.5808,-2.169782 -6.87111,-1.205547 -2.4111,0.96424 -3.97806,3.134355 -4.09851,5.665557 0,0.602766 -0.48228,1.085018 -1.08502,1.085018 -3.6163,0 -6.50959,2.893043 -6.50959,6.63013 0,3.616303 3.01348,6.630129 6.63013,6.630129 h 25.55594 c 3.6163,0 6.63013,-3.013493 6.63013,-6.630129 0,-3.254801 -2.29023,-5.906874 -5.42459,-6.509601 z"
       id="path2179"
       style="fill:#33ff33;fill-opacity:1;stroke-width:0.0838176" /><rect
       style="fill:none;fill-opacity:1;stroke:#33ff33;stroke-width:2.58026;stroke-linecap:round;stroke-linejoin:round;stroke-miterlimit:3.9;stroke-dasharray:2.58026, 7.74078;stroke-dashoffset:0;stroke-opacity:1"
       id="rect2502"
       width="67.917755"
       height="143.46671"
       x="-204.11491"
       y="-90.638641" /><text
       xml:space="preserve"
       style="font-size:9.33059px;line-height:1.25;font-family:'Century Gothic';-inkscape-font-specification:'Century Gothic';text-align:center;text-anchor:middle;fill:#33ff33;fill-opacity:1;stroke-width:0.129591"
       x="-104.98495"
       y="93.664307"
       id="text148589"><tspan
         sodipodi:role="line"
         style="font-style:normal;font-variant:normal;font-weight:600;font-stretch:normal;font-size:9.33059px;font-family:'Century Gothic';-inkscape-font-specification:'Century Gothic Semi-Bold';text-align:center;text-anchor:middle;fill:#33ff33;fill-opacity:1;stroke-width:0.129591"
         x="-104.98495"
         y="93.664307"
         id="tspan148587">AWS</tspan></text><text
       xml:space="preserve"
       style="font-size:9.33059px;line-height:1.25;font-family:'Century Gothic';-inkscape-font-specification:'Century Gothic';fill:#33ff33;fill-opacity:1;stroke-width:0.129591"
       x="-2.8459861"
       y="68.14814"
       id="text4295"><tspan
         sodipodi:role="line"
         id="tspan4293"
         style="font-style:normal;font-variant:normal;font-weight:600;font-stretch:normal;font-size:9.33059px;font-family:'Century Gothic';-inkscape-font-specification:'Century Gothic Semi-Bold';fill:#33ff33;fill-opacity:1;stroke-width:0.129591"
         x="-2.8459861"
         y="68.14814">DynamoDB</tspan></text><path
       style="fill:#33ff33;fill-opacity:1;stroke-width:0.057771;stroke:#33ff33;stroke-opacity:0.98039216"
       d="m -123.21688,22.037676 c -6.16072,0 -12.7085,1.665891 -12.7085,4.753239 v 20.072594 c 0,3.08735 6.54778,4.753239 12.7085,4.753239 6.16072,0 12.7085,-1.665889 12.7085,-4.753239 V 26.790915 c 0,-3.087348 -6.54778,-4.753239 -12.7085,-4.753239 z m 11.52535,18.13495 c 0,1.688651 -4.73319,3.570085 -11.52535,3.570085 -6.79216,0 -11.52535,-1.881376 -11.52535,-3.570085 v -4.595987 c 2.16076,1.738336 6.94872,2.658803 11.52535,2.658803 4.57663,0 9.36471,-0.920295 11.52535,-2.658803 z m -23.0507,-6.690481 v -4.595984 c 2.16076,1.738565 6.94872,2.658802 11.52535,2.658802 4.57663,0 9.36471,-0.920295 11.52535,-2.658802 v 4.595984 c 0,1.688653 -4.73319,3.570549 -11.52535,3.570549 -6.79216,0 -11.52535,-1.881377 -11.52535,-3.570549 m 11.52535,-10.260737 c 6.79216,0 11.52535,1.881375 11.52535,3.570085 0,1.688652 -4.73319,3.570547 -11.52535,3.570547 -6.79216,0 -11.52535,-1.881376 -11.52535,-3.570547 0,-1.68865 4.73342,-3.570085 11.52535,-3.570085 z m 0,27.212534 c -6.79216,0 -11.52535,-1.881377 -11.52535,-3.570086 V 42.26787 c 2.16076,1.738566 6.94872,2.65863 11.52535,2.65863 4.57663,0 9.36471,-0.919833 11.52535,-2.65863 v 4.595986 c 0,1.688651 -4.73319,3.570086 -11.52535,3.570086 z"
       id="path2318"
       sodipodi:nodetypes="sssssssssscscsccscsscssssssscscss"
       class="UnoptimicedTransforms"
       transform="matrix(1.2901297,0,0,1.2901297,181.47361,-8.1521302)" /><text
       xml:space="preserve"
       style="font-size:9.33059px;line-height:1.25;font-family:'Century Gothic';-inkscape-font-specification:'Century Gothic';text-align:center;text-anchor:middle;fill:#33ff33;fill-opacity:1;stroke-width:0.129591"
       x="-8.8700228"
       y="-88.102859"
       id="text4264"><tspan
         sodipodi:role="line"
         style="font-style:normal;font-variant:normal;font-weight:600;font-stretch:normal;font-size:9.33059px;font-family:'Century Gothic';-inkscape-font-specification:'Century Gothic Semi-Bold';text-align:center;text-anchor:middle;fill:#33ff33;fill-opacity:1;stroke-width:0.129591"
         x="-8.8700218"
         y="-88.102859"
         id="tspan5323">SES</tspan></text><path
       style="fill:#33ff33;fill-opacity:1;stroke-width:0.0881148"
       d="M 37.422675,-95.305484 V -101.8287 L 20.442968,-86.850086 3.4623844,-101.82782 v 19.92097 c 0,0.270196 0.1114672,0.516987 0.2898276,0.694934 0.1758834,0.179675 0.4237044,0.289818 0.6952767,0.289818 H 27.09649 c 0.43369,0.770661 0.97508,1.486585 1.613913,2.125414 l 0.147656,0.144562 H 4.4476435 c -0.8941889,0 -1.7068674,-0.366222 -2.2961857,-0.954459 -0.5937435,-0.589266 -0.9593018,-1.403667 -0.9593018,-2.300234 v -20.309555 c 0,-0.89419 0.3662292,-1.70687 0.9544638,-2.29619 0.5892667,-0.59374 1.4036611,-0.9593 2.3009334,-0.9593 H 36.438487 c 0.896653,0 1.711705,0.36622 2.300223,0.95481 0.589267,0.58893 0.954812,1.40296 0.954812,2.30023 v 7.635321 C 38.97105,-94.913992 38.20968,-95.156994 37.423165,-95.305 Z m -1.860806,-7.897106 H 5.3226611 l 15.1196109,13.337042 z"
       id="path2728" /><path
       d="m 41.333897,-79.925306 -9.94e-4,0.0018 c -1.536815,1.536192 -3.659491,2.487831 -6.002109,2.487831 -2.342269,0 -4.465307,-0.951729 -6.004844,-2.490651 -1.536196,-1.536812 -2.487835,-3.659493 -2.487835,-6.00211 0,-2.342266 0.951729,-4.465302 2.487835,-6.002112 1.539279,-1.538922 3.662227,-2.490647 6.004844,-2.490647 2.342256,0 4.465294,0.951725 6.002109,2.487828 1.538918,1.539277 2.490647,3.662223 2.490647,6.00484 0,0.774108 -0.31701,1.478655 -0.827102,1.988751 -0.509408,0.509409 -1.213341,0.826075 -1.987432,0.826075 -0.705946,0 -1.353359,-0.263656 -1.848033,-0.695966 -0.19997,0.357967 -0.447108,0.687021 -0.734858,0.974461 -0.79543,0.794406 -1.889614,1.285243 -3.095383,1.285243 -1.208141,0 -2.303397,-0.490826 -3.095382,-1.282513 -0.791649,-0.795437 -1.282505,-1.889003 -1.282505,-3.095733 0,-1.206379 0.49083,-2.299969 1.282505,-3.092649 0.791662,-0.794406 1.887241,-1.285243 3.095382,-1.285243 1.093863,0 2.095107,0.40443 2.863727,1.070155 v -0.873922 h 1.514522 v 4.182011 c 0,0.357624 0.146972,0.683576 0.382059,0.918686 0.235088,0.23509 0.560691,0.382055 0.917979,0.382055 0.356927,0 0.683227,-0.146976 0.917979,-0.382055 0.235436,-0.236121 0.382743,-0.561044 0.382743,-0.918686 0,-1.92786 -0.781329,-3.673942 -2.042495,-4.936451 -1.262147,-1.261096 -3.008673,-2.041792 -4.936449,-2.041792 -1.928563,0 -3.673941,0.780644 -4.936449,2.041792 -1.260831,1.262156 -2.041798,3.008678 -2.041798,4.936451 0,1.927776 0.781328,3.673943 2.041798,4.93645 1.26216,1.261101 3.007976,2.041797 4.936449,2.041797 1.927867,0 3.673941,-0.780643 4.936449,-2.041797 l 1.066628,1.066632 z m -3.976167,-8.030159 c -0.518026,-0.516301 -1.235377,-0.836746 -2.027,-0.836746 -0.791314,0 -1.507904,0.32079 -2.025233,0.83812 -0.518013,0.516299 -0.838107,1.233606 -0.838107,2.02523 0,0.792344 0.320094,1.509668 0.836739,2.02699 0.519045,0.516298 1.235635,0.83709 2.026988,0.83709 0.791662,0 1.508961,-0.320103 2.027,-0.83709 0.516297,-0.51733 0.836739,-1.234662 0.836739,-2.02699 0,-0.79166 -0.320107,-1.508966 -0.836739,-2.026991 z"
       style="fill:#ffbb00;fill-opacity:1;stroke-width:0.0881148;stroke:#ffbb00;stroke-opacity:1"
       id="path2781" /><path
       d="m -53.149458,-105.47186 h -27.551984 c -1.445261,0 -2.619608,1.17434 -2.619608,2.61961 v 7.136324 c 0,1.445261 1.174347,2.619608 2.619608,2.619608 h 27.551984 c 1.445261,0 2.619608,-1.174347 2.619608,-2.619608 v -7.136324 c 0,-1.44527 -1.174347,-2.61961 -2.619608,-2.61961 z m 0.677481,9.755934 c 0,0.361487 -0.316338,0.677481 -0.677481,0.677481 h -27.551984 c -0.361487,0 -0.677481,-0.316338 -0.677481,-0.677481 v -7.136324 c 0,-0.36149 0.316338,-0.67748 0.677481,-0.67748 h 27.551984 c 0.361487,0 0.677481,0.31633 0.677481,0.67748 z"
       id="path1610"
       style="fill:#33ff33;fill-opacity:1;stroke-width:0.0882172" /><path
       d="m -75.462225,-99.283958 c 0,0.823243 -0.667142,1.490429 -1.490429,1.490429 -0.823242,0 -1.490428,-0.667142 -1.490428,-1.490429 0,-0.823242 0.667142,-1.490692 1.490428,-1.490692 0.823243,0 1.490429,0.66749 1.490429,1.490692"
       id="path1612"
       style="fill:#33ff33;fill-opacity:1;stroke-width:0.0882172" /><path
       d="m -70.223007,-99.283958 c 0,0.823243 -0.667487,1.490429 -1.490694,1.490429 -0.822899,0 -1.490429,-0.667142 -1.490429,-1.490429 0,-0.823242 0.667486,-1.490692 1.490429,-1.490692 0.823242,0 1.490694,0.66749 1.490694,1.490692"
       id="path1614"
       style="fill:#ffbb00;fill-opacity:1;stroke-width:0.0882172;stroke:#ffbb00;stroke-opacity:1" /><path
       d="m -56.040335,-100.41314 h -10.750143 c -0.316338,0 -0.587191,0.27086 -0.587191,0.587194 v 1.038933 c 0,0.316338 0.270853,0.587191 0.587191,0.587191 h 10.750143 c 0.316338,0 0.587191,-0.270853 0.587191,-0.587191 v -1.038933 c 0,-0.316334 -0.270853,-0.587194 -0.587191,-0.587194 z"
       id="path1616"
       style="fill:#33ff33;fill-opacity:1;stroke-width:0.0882172" /><path
       d="m -53.149458,-90.205089 h -27.551984 c -1.445261,0 -2.619608,1.174347 -2.619608,2.619609 v 7.136327 c 0,1.445262 1.174347,2.619609 2.619608,2.619609 h 27.551984 c 1.445261,0 2.619608,-1.174347 2.619608,-2.619609 v -7.136327 c 0,-1.445262 -1.174347,-2.619609 -2.619608,-2.619609 z m 0.677481,9.755936 c 0,0.361488 -0.316338,0.677481 -0.677481,0.677481 h -27.551984 c -0.361487,0 -0.677481,-0.316338 -0.677481,-0.677481 v -7.136592 c 0,-0.361487 0.316338,-0.677481 0.677481,-0.677481 h 27.551984 c 0.361487,0 0.677481,0.316338 0.677481,0.677481 z"
       id="path1618"
       style="fill:#33ff33;fill-opacity:1;stroke-width:0.0882172" /><path
       d="m -75.462225,-84.017537 c 0,0.823242 -0.667142,1.490429 -1.490429,1.490429 -0.823242,0 -1.490428,-0.667142 -1.490428,-1.490429 0,-0.823287 0.667142,-1.490429 1.490428,-1.490429 0.823243,0 1.490429,0.667142 1.490429,1.490429"
       id="path1620"
       style="fill:#ffbb00;fill-opacity:1;stroke-width:0.0882172;stroke:#ffbb00;stroke-opacity:1" /><path
       d="m -70.223007,-84.017537 c 0,0.823242 -0.667487,1.490429 -1.490694,1.490429 -0.822899,0 -1.490429,-0.667142 -1.490429,-1.490429 0,-0.823287 0.667486,-1.490429 1.490429,-1.490429 0.823242,0 1.490694,0.667142 1.490694,1.490429"
       id="path1622"
       style="fill:#33ff33;fill-opacity:1;stroke-width:0.0882172" /><path
       d="m -56.040335,-85.146717 h -10.750143 c -0.316338,0 -0.587191,0.270853 -0.587191,0.587191 v 1.038934 c 0,0.316338 0.270853,0.587191 0.587191,0.587191 h 10.750143 c 0.316338,0 0.587191,-0.270853 0.587191,-0.587191 v -1.038934 c 0,-0.315993 -0.270853,-0.587191 -0.587191,-0.587191 z"
       id="path1624"
       style="fill:#33ff33;fill-opacity:1;stroke-width:0.0882172" /><path
       d="m -53.149458,-74.939109 h -27.551984 c -1.445261,0 -2.619608,1.174347 -2.619608,2.619608 v 7.136328 c 0,1.445261 1.174347,2.619608 2.619608,2.619608 h 27.551984 c 1.445261,0 2.619608,-1.174347 2.619608,-2.619608 v -7.135975 c 0,-1.445614 -1.174347,-2.619961 -2.619608,-2.619961 z m 0.677481,9.755936 c 0,0.361487 -0.316338,0.677481 -0.677481,0.677481 h -27.551984 c -0.361487,0 -0.677481,-0.316338 -0.677481,-0.677481 v -7.136328 c 0,-0.361487 0.316338,-0.677481 0.677481,-0.677481 h 27.551984 c 0.361487,0 0.677481,0.316338 0.677481,0.677481 z"
       id="path1626"
       style="fill:#33ff33;fill-opacity:1;stroke-width:0.0882172" /><path
       d="m -75.462225,-68.751558 c 0,0.823243 -0.667142,1.490694 -1.490429,1.490694 -0.823242,0 -1.490428,-0.667486 -1.490428,-1.490694 0,-0.823242 0.667142,-1.490428 1.490428,-1.490428 0.823243,0 1.490429,0.667142 1.490429,1.490428"
       id="path1628"
       style="fill:#ffbb00;fill-opacity:1;stroke-width:0.0882172;stroke:#ffbb00;stroke-opacity:1" /><path
       d="m -70.223007,-68.751558 c 0,0.823243 -0.667487,1.490694 -1.490694,1.490694 -0.822899,0 -1.490429,-0.667486 -1.490429,-1.490694 0,-0.823242 0.667486,-1.490428 1.490429,-1.490428 0.823242,0 1.490694,0.667142 1.490694,1.490428"
       id="path1630"
       style="fill:#33ff33;fill-opacity:1;stroke-width:0.0882172" /><path
       d="m -56.040335,-69.879855 h -10.750143 c -0.316338,0 -0.587191,0.270853 -0.587191,0.587191 v 1.083748 c 0,0.316338 0.270853,0.587191 0.587191,0.587191 h 10.750143 c 0.316338,0 0.587191,-0.270853 0.587191,-0.587191 v -1.038934 c 0,-0.361143 -0.270853,-0.631996 -0.587191,-0.631996 z"
       id="path1632"
       style="fill:#33ff33;fill-opacity:1;stroke-width:0.0882172" /><text
       xml:space="preserve"
       style="font-size:9.33059px;line-height:1.25;font-family:'Century Gothic';-inkscape-font-specification:'Century Gothic';text-align:center;text-anchor:middle;fill:#33ff33;fill-opacity:1;stroke-width:0.129591"
       x="-67.025688"
       y="-52.855606"
       id="text1638"><tspan
         sodipodi:role="line"
         style="font-style:normal;font-variant:normal;font-weight:600;font-stretch:normal;font-size:9.33059px;font-family:'Century Gothic';-inkscape-font-specification:'Century Gothic Semi-Bold';text-align:center;text-anchor:middle;fill:#33ff33;fill-opacity:1;stroke-width:0.129591"
         x="-67.025688"
         y="-52.855606"
         id="tspan1640">S3 Bucket</tspan></text><text
       xml:space="preserve"
       style="font-size:9.33059px;line-height:1.25;font-family:'Century Gothic';-inkscape-font-specification:'Century Gothic';text-align:center;text-anchor:middle;fill:#33ff33;fill-opacity:1;stroke-width:0.129591"
       x="-67.064377"
       y="64.428917"
       id="text4364"><tspan
         sodipodi:role="line"
         style="font-style:normal;font-variant:normal;font-weight:600;font-stretch:normal;font-size:9.33059px;font-family:'Century Gothic';-inkscape-font-specification:'Century Gothic Semi-Bold';text-align:center;text-anchor:middle;fill:#33ff33;fill-opacity:1;stroke-width:0.129591"
         x="-67.064377"
         y="64.428917"
         id="tspan4368">Lambda</tspan><tspan
         sodipodi:role="line"
         style="font-style:normal;font-variant:normal;font-weight:600;font-stretch:normal;font-size:9.33059px;font-family:'Century Gothic';-inkscape-font-specification:'Century Gothic Semi-Bold';text-align:center;text-anchor:middle;fill:#33ff33;fill-opacity:1;stroke-width:0.129591"
         x="-67.064377"
         y="76.092155"
         id="tspan115836">function (DB)</tspan></text><path
       style="fill:#33ff33;stroke:#33ff33;stroke-width:1.82065;stroke-linecap:round;stroke-linejoin:round;stroke-miterlimit:3.9;stroke-dasharray:none;stroke-opacity:1;marker-start:url(#Arrow3);marker-end:url(#marker5141);fill-opacity:1"
       d="m -271.24976,-20.120348 c 11.09589,0 18.72205,-0.13613 57.02614,-0.13613"
       id="path5275"
       sodipodi:nodetypes="cc" /><path
       style="fill:none;stroke:#33ff33;stroke-width:1.89004;stroke-linecap:round;stroke-linejoin:round;stroke-miterlimit:3.9;stroke-dasharray:none;stroke-opacity:1;marker-start:url(#Arrow3);marker-end:url(#marker5141);fill-opacity:1"
       d="m -128.49056,-24.573575 20.49143,-0.163455 0,-57.678824 19.514804,-0.351175"
       id="path5293"
       sodipodi:nodetypes="cccc" /><path
       style="fill:#33ff33;stroke:#33ff33;stroke-width:1.89004;stroke-linecap:round;stroke-linejoin:round;stroke-miterlimit:3.9;stroke-dasharray:none;stroke-opacity:1;marker-end:url(#marker5141);fill-opacity:1"
       d="m -44.724055,43.505776 c 12.429191,0 1.320827,-0.130967 44.22762649,-0.130967"
       id="path5297"
       sodipodi:nodetypes="cc" /><path
       style="fill:#33ff33;stroke:#33ff33;stroke-width:2.1227;stroke-linecap:round;stroke-linejoin:round;stroke-miterlimit:3.9;stroke-dasharray:none;stroke-opacity:1;marker-end:url(#marker5141);fill-opacity:1"
       d="m 21.725096,-51.365554 c 0,-17.46509 -0.117556,-4.199343 -0.117556,-20.823533"
       id="path5311"
       sodipodi:nodetypes="cc" /><path
       d="m -59.382258,47.692909 c 0,0.70843 -0.574391,1.282822 -1.282822,1.282822 -0.708431,0 -1.282823,-0.574392 -1.282823,-1.282822 0,-0.708431 0.574392,-1.282823 1.282823,-1.282823 0.708431,0 1.282822,0.574392 1.282822,1.282823"
       id="path115882"
       style="fill:#33ff33;fill-opacity:1;stroke-width:0.0240529;stroke-dasharray:none" /><path
       d="m -63.230725,47.692909 c 0,0.70843 -0.574392,1.282822 -1.282823,1.282822 -0.708431,0 -1.282822,-0.574392 -1.282822,-1.282822 0,-0.708431 0.574391,-1.282823 1.282822,-1.282823 0.708431,0 1.282823,0.574392 1.282823,1.282823"
       id="path115884"
       style="fill:#33ff33;fill-opacity:1;stroke-width:0.0240529;stroke-dasharray:none" /><path
       d="m -69.644838,46.410086 h -3.848468 c -0.708431,0 -1.282822,0.574392 -1.282822,1.282823 0,0.70843 0.574391,1.282822 1.282822,1.282822 h 3.848468 c 0.708431,0 1.282822,-0.574392 1.282822,-1.282822 0,-0.708431 -0.574391,-1.282823 -1.282822,-1.282823 z"
       id="path115886"
       style="fill:#33ff33;fill-opacity:1;stroke-width:0.0240529;stroke-dasharray:none" /><path
       d="m -59.382258,42.561618 h -15.39387 c -2.12219,0 -3.848468,1.726279 -3.848468,3.848468 v 2.565645 c 0,2.12219 1.726278,3.848468 3.848468,3.848468 h 15.39387 c 2.12219,0 3.848468,-1.726278 3.848468,-3.848468 v -2.565645 c 0,-2.122189 -1.726278,-3.848468 -3.848468,-3.848468 z m 1.282823,6.414113 c 0,0.70718 -0.575017,1.282823 -1.282823,1.282823 h -15.39387 c -0.70718,0 -1.282823,-0.575643 -1.282823,-1.282823 v -2.565645 c 0,-0.70718 0.575643,-1.282823 1.282823,-1.282823 h 15.39387 c 0.707806,0 1.282823,0.575643 1.282823,1.282823 z"
       id="path115888"
       style="fill:#33ff33;fill-opacity:1;stroke-width:0.0240529;stroke-dasharray:none" /><path
       d="m -57.562253,23.34654 c -1.519584,-3.770135 -5.209302,-6.441373 -9.51694,-6.441373 -4.307638,0 -7.997276,2.671157 -9.51694,6.441373 -4.700983,0.279992 -8.442576,4.182322 -8.442576,8.952498 0,4.951535 4.028223,8.979758 8.979758,8.979758 h 1.282823 c 0.70843,0 1.282822,-0.574392 1.282822,-1.282823 0,-0.708431 -0.574392,-1.282822 -1.282822,-1.282822 h -1.282823 c -3.536501,0 -6.414113,-2.877612 -6.414113,-6.414113 0,-3.121268 2.243657,-5.722271 5.201766,-6.291363 -0.04322,0.381151 -0.07047,0.767312 -0.07047,1.160073 0,0.70843 0.574392,1.282822 1.282822,1.282822 0.708431,0 1.282823,-0.574392 1.282823,-1.282822 0,-4.244379 3.452556,-7.696936 7.696935,-7.696936 4.244379,0 7.696936,3.452557 7.696936,7.696936 0,0.70843 0.573758,1.282822 1.282822,1.282822 0.709064,0 1.282823,-0.574392 1.282823,-1.282822 0,-0.392737 -0.02725,-0.778898 -0.07047,-1.160073 2.958108,0.569068 5.201765,3.170095 5.201765,6.291363 0,3.536501 -2.877611,6.414113 -6.414113,6.414113 h -1.282822 c -0.709064,0 -1.282823,0.574391 -1.282823,1.282822 0,0.708431 0.573759,1.282823 1.282823,1.282823 h 1.282822 c 4.950894,0 8.979758,-4.028223 8.979758,-8.979758 0,-4.770176 -3.741993,-8.671881 -8.442576,-8.952498 z"
       id="path115890"
       style="fill:#33ff33;fill-opacity:1;stroke-width:0.0240529;stroke-dasharray:none" /><path
       d="m -60.66508,34.864683 c 0,-3.536501 -2.877612,-6.414113 -6.414113,-6.414113 -3.536501,0 -6.414113,2.877612 -6.414113,6.414113 0,3.536501 2.877612,6.414113 6.414113,6.414113 3.536501,0 6.414113,-2.877612 6.414113,-6.414113 z m -6.414113,3.848468 c -0.592239,0 -1.146924,-0.145633 -1.648587,-0.385537 l 5.111887,-5.111566 c 0.239904,0.501727 0.385224,1.056404 0.385224,1.648587 0,2.122189 -1.726279,3.848468 -3.848468,3.848468 z m 0,-7.696936 c 0.592552,0 1.147485,0.145633 1.649229,0.385849 l -5.112209,5.111567 c -0.239903,-0.501728 -0.385536,-1.056725 -0.385536,-1.648908 0,-2.122189 1.726278,-3.848468 3.848468,-3.848468 z"
       id="path115892"
       style="fill:#ffbb00;fill-opacity:1;stroke-width:0.0240529;stroke-dasharray:none;stroke:#ffbb00;stroke-opacity:1" /><rect
       style="fill:none;stroke:#33ff33;stroke-width:1.57478;stroke-linecap:round;stroke-linejoin:round;stroke-miterlimit:16;stroke-dasharray:1.57478, 6.29912;stroke-dashoffset:0;stroke-opacity:1"
       id="rect148377"
       width="294.56125"
       height="191.9211"
       x="-241.03349"
       y="-111.21213"
       ry="6.1426053" /><text
       xml:space="preserve"
       style="font-size:9.33059px;line-height:1.25;font-family:'Century Gothic';-inkscape-font-specification:'Century Gothic';text-align:center;text-anchor:middle;fill:#33ff33;fill-opacity:1;stroke-width:0.129591"
       x="-20.175617"
       y="-37.776638"
       id="text191389"><tspan
         sodipodi:role="line"
         style="font-style:normal;font-variant:normal;font-weight:600;font-stretch:normal;font-size:9.33059px;font-family:'Century Gothic';-inkscape-font-specification:'Century Gothic Semi-Bold';text-align:center;text-anchor:middle;fill:#33ff33;fill-opacity:1;stroke-width:0.129591"
         x="-20.175617"
         y="-37.776638"
         id="tspan191385">Lambda</tspan><tspan
         sodipodi:role="line"
         style="font-style:normal;font-variant:normal;font-weight:600;font-stretch:normal;font-size:9.33059px;font-family:'Century Gothic';-inkscape-font-specification:'Century Gothic Semi-Bold';text-align:center;text-anchor:middle;fill:#33ff33;fill-opacity:1;stroke-width:0.129591"
         x="-20.175615"
         y="-26.113398"
         id="tspan191387">function</tspan><tspan
         sodipodi:role="line"
         style="font-style:normal;font-variant:normal;font-weight:600;font-stretch:normal;font-size:9.33059px;font-family:'Century Gothic';-inkscape-font-specification:'Century Gothic Semi-Bold';text-align:center;text-anchor:middle;fill:#33ff33;fill-opacity:1;stroke-width:0.129591"
         x="-20.175617"
         y="-14.450161"
         id="tspan191461">(email)</tspan></text><path
       d="m 30.652912,-15.749943 c 0,0.70843 -0.574391,1.282822 -1.282822,1.282822 -0.708431,0 -1.282823,-0.574392 -1.282823,-1.282822 0,-0.708431 0.574392,-1.282823 1.282823,-1.282823 0.708431,0 1.282822,0.574392 1.282822,1.282823"
       id="path191391"
       style="fill:#33ff33;fill-opacity:1;stroke-width:0.0240529;stroke-dasharray:none" /><path
       d="m 26.804445,-15.749943 c 0,0.70843 -0.574392,1.282822 -1.282823,1.282822 -0.708431,0 -1.282822,-0.574392 -1.282822,-1.282822 0,-0.708431 0.574391,-1.282823 1.282822,-1.282823 0.708431,0 1.282823,0.574392 1.282823,1.282823"
       id="path191393"
       style="fill:#33ff33;fill-opacity:1;stroke-width:0.0240529;stroke-dasharray:none" /><path
       d="m 20.390332,-17.032766 h -3.848468 c -0.708431,0 -1.282822,0.574392 -1.282822,1.282823 0,0.70843 0.574391,1.282822 1.282822,1.282822 h 3.848468 c 0.708431,0 1.282822,-0.574392 1.282822,-1.282822 0,-0.708431 -0.574391,-1.282823 -1.282822,-1.282823 z"
       id="path191395"
       style="fill:#33ff33;fill-opacity:1;stroke-width:0.0240529;stroke-dasharray:none" /><path
       d="m 30.652912,-20.881234 h -15.39387 c -2.12219,0 -3.848468,1.726279 -3.848468,3.848468 v 2.565645 c 0,2.12219 1.726278,3.848468 3.848468,3.848468 h 15.39387 c 2.12219,0 3.848468,-1.726278 3.848468,-3.848468 v -2.565645 c 0,-2.122189 -1.726278,-3.848468 -3.848468,-3.848468 z m 1.282823,6.414113 c 0,0.70718 -0.575017,1.282823 -1.282823,1.282823 h -15.39387 c -0.70718,0 -1.282823,-0.575643 -1.282823,-1.282823 v -2.565645 c 0,-0.70718 0.575643,-1.282823 1.282823,-1.282823 h 15.39387 c 0.707806,0 1.282823,0.575643 1.282823,1.282823 z"
       id="path191397"
       style="fill:#33ff33;fill-opacity:1;stroke-width:0.0240529;stroke-dasharray:none" /><path
       d="m 32.472917,-40.096312 c -1.519584,-3.770135 -5.209302,-6.441373 -9.51694,-6.441373 -4.307638,0 -7.997276,2.671157 -9.51694,6.441373 -4.7009834,0.279992 -8.4425759,4.182322 -8.4425759,8.952498 0,4.951535 4.0282232,8.979758 8.9797579,8.979758 h 1.282823 c 0.70843,0 1.282822,-0.574392 1.282822,-1.282823 0,-0.708431 -0.574392,-1.282822 -1.282822,-1.282822 h -1.282823 c -3.536501,0 -6.4141128,-2.877612 -6.4141128,-6.414113 0,-3.121268 2.2436567,-5.722271 5.2017658,-6.291363 -0.04322,0.381151 -0.07047,0.767312 -0.07047,1.160073 0,0.70843 0.574392,1.282822 1.282822,1.282822 0.708431,0 1.282823,-0.574392 1.282823,-1.282822 0,-4.244379 3.452556,-7.696936 7.696935,-7.696936 4.244379,0 7.696936,3.452557 7.696936,7.696936 0,0.70843 0.573758,1.282822 1.282822,1.282822 0.709064,0 1.282823,-0.574392 1.282823,-1.282822 0,-0.392737 -0.02725,-0.778898 -0.07047,-1.160073 2.958108,0.569068 5.201765,3.170095 5.201765,6.291363 0,3.536501 -2.877611,6.414113 -6.414113,6.414113 h -1.282822 c -0.709064,0 -1.282823,0.574391 -1.282823,1.282822 0,0.708431 0.573759,1.282823 1.282823,1.282823 h 1.282822 c 4.950894,0 8.979758,-4.028223 8.979758,-8.979758 0,-4.770176 -3.741993,-8.671881 -8.442576,-8.952498 z"
       id="path191399"
       style="fill:#33ff33;fill-opacity:1;stroke-width:0.0240529;stroke-dasharray:none" /><path
       d="m 29.37009,-28.578169 c 0,-3.536501 -2.877612,-6.414113 -6.414113,-6.414113 -3.536501,0 -6.414113,2.877612 -6.414113,6.414113 0,3.536501 2.877612,6.414113 6.414113,6.414113 3.536501,0 6.414113,-2.877612 6.414113,-6.414113 z m -6.414113,3.848468 c -0.592239,0 -1.146924,-0.145633 -1.648587,-0.385537 l 5.111887,-5.111566 c 0.239904,0.501727 0.385224,1.056404 0.385224,1.648587 0,2.122189 -1.726279,3.848468 -3.848468,3.848468 z m 0,-7.696936 c 0.592552,0 1.147485,0.145633 1.649229,0.385849 l -5.112209,5.111567 c -0.239903,-0.501728 -0.385536,-1.056725 -0.385536,-1.648908 0,-2.122189 1.726278,-3.848468 3.848468,-3.848468 z"
       id="path191401"
       style="fill:#ffbb00;fill-opacity:1;stroke-width:0.0240529;stroke-dasharray:none;stroke:#ffbb00;stroke-opacity:1" /><path
       style="fill:none;stroke:#33ff33;stroke-width:1.89004;stroke-linecap:round;stroke-linejoin:round;stroke-miterlimit:3.9;stroke-dasharray:none;stroke-opacity:1;marker-start:url(#Arrow3);marker-end:url(#marker5141);fill-opacity:1"
       d="m -128.49056,-24.573575 20.49143,-0.163455 0,68.370414 19.514804,-0.351175"
       id="path191459"
       sodipodi:nodetypes="cccc" /><path
       style="fill:#33ff33;stroke:#33ff33;stroke-width:2.1227;stroke-linecap:round;stroke-linejoin:round;stroke-miterlimit:3.9;stroke-dasharray:none;stroke-opacity:1;marker-end:url(#marker5141);fill-opacity:1"
       d="m 21.725096,14.810296 c 0,-17.4650901 -0.117556,-4.199343 -0.117556,-20.8235331"
       id="path191463"
       sodipodi:nodetypes="cc" /></g></svg>
